<?xml version="1.0" ?><svg height="100%" id="svg2793" style="fill-rule:evenodd;clip-rule:evenodd;stroke-linejoin:round;stroke-miterlimit:2;" version="1.1" viewBox="0 0 512 512" width="100%" xml:space="preserve" xmlns="http://www.w3.org/2000/svg" xmlns:cc="http://creativecommons.org/ns#" xmlns:dc="http://purl.org/dc/elements/1.1/" xmlns:rdf="http://www.w3.org/1999/02/22-rdf-syntax-ns#" xmlns:serif="http://www.serif.com/" xmlns:svg="http://www.w3.org/2000/svg"><defs id="defs2797"/><g id="g2357" style="display:inline" transform="translate(476.464,37.237)"><g id="_19-Hierarchical--Structure"><path d="m 0,437.526 c -3.519,3.519 -8.394,5.537 -13.374,5.537 h -61.55 c -4.98,0 -9.854,-2.018 -13.373,-5.537 -3.518,-3.519 -5.537,-8.393 -5.537,-13.373 0,-5.054 1.967,-9.803 5.538,-13.374 3.524,-3.524 8.398,-5.546 13.372,-5.546 h 61.55 c 4.975,0 9.849,2.022 13.373,5.546 3.571,3.571 5.537,8.32 5.537,13.374 0,4.98 -2.018,9.855 -5.536,13.373 M -176.32,410.78 c 3.576,3.576 5.546,8.325 5.546,13.373 0,4.975 -2.022,9.849 -5.546,13.373 -3.571,3.57 -8.321,5.537 -13.374,5.537 h -61.539 c -5.054,0 -9.804,-1.967 -13.374,-5.537 -3.525,-3.524 -5.546,-8.398 -5.546,-13.373 0,-5.048 1.969,-9.797 5.546,-13.374 3.577,-3.576 8.326,-5.546 13.374,-5.546 h 61.539 c 5.048,0 9.797,1.97 13.374,5.547 m 88.023,-184.484 c -3.518,-3.519 -5.537,-8.393 -5.537,-13.373 0,-5.053 1.967,-9.803 5.538,-13.374 3.524,-3.524 8.398,-5.546 13.372,-5.546 h 61.55 c 4.975,0 9.849,2.022 13.373,5.546 3.571,3.571 5.537,8.32 5.537,13.374 0,4.98 -2.018,9.855 -5.536,13.373 -3.519,3.519 -8.394,5.537 -13.374,5.537 h -61.55 c -4.98,0 -9.854,-2.018 -13.373,-5.537 M -176.32,199.55 c 3.576,3.576 5.546,8.325 5.546,13.373 0,4.975 -2.022,9.849 -5.546,13.373 -3.571,3.57 -8.321,5.537 -13.374,5.537 h -61.539 c -5.054,0 -9.804,-1.967 -13.374,-5.537 -3.525,-3.524 -5.546,-8.398 -5.546,-13.373 0,-5.048 1.969,-9.797 5.546,-13.374 3.577,-3.576 8.326,-5.546 13.374,-5.546 h 61.539 c 5.048,0 9.797,1.97 13.374,5.547 m -176.311,211.23 c 3.57,3.57 5.537,8.319 5.537,13.373 0,4.98 -2.018,9.854 -5.538,13.374 -3.569,3.57 -8.318,5.536 -13.372,5.536 h -61.54 c -5.06,0 -9.813,-1.967 -13.383,-5.536 -3.518,-3.519 -5.537,-8.394 -5.537,-13.374 0,-5.054 1.966,-9.803 5.536,-13.374 3.526,-3.524 8.404,-5.546 13.384,-5.546 h 61.54 c 5.048,0 9.797,1.97 13.373,5.547 m 88.024,-384.034 c -3.577,-3.576 -5.546,-8.325 -5.546,-13.373 0,-4.975 2.021,-9.849 5.546,-13.373 3.57,-3.571 8.32,-5.537 13.374,-5.537 h 61.539 c 5.053,0 9.803,1.966 13.374,5.536 3.524,3.525 5.546,8.399 5.546,13.374 0,5.048 -1.97,9.797 -5.546,13.373 -3.577,3.577 -8.327,5.547 -13.374,5.547 h -61.539 c -5.047,0 -9.797,-1.97 -13.374,-5.547 m 251.233,348.487 h -15.779 v -113.4 h 15.779 c 13.066,0 25.35,-5.087 34.588,-14.324 9.235,-9.237 14.322,-21.52 14.322,-34.586 0,-13.066 -5.087,-25.349 -14.323,-34.586 -9.109,-9.11 -21.716,-14.334 -34.587,-14.334 h -12.52 v -36.53 c 0,-8.284 -6.715,-15 -15,-15 h -167.63 v -50.18 h 18.83 c 13.06,0 25.343,-5.09 34.587,-14.333 9.243,-9.243 14.333,-21.526 14.333,-34.587 0,-12.872 -5.225,-25.478 -14.333,-34.587 -9.238,-9.237 -21.521,-14.323 -34.587,-14.323 h -61.539 c -13.067,0 -25.35,5.086 -34.587,14.323 -9.109,9.109 -14.333,21.715 -14.333,34.587 0,13.061 5.09,25.344 14.333,34.586 9.243,9.244 21.526,14.334 34.587,14.334 h 12.709 v 50.18 h -158.25 c -8.285,0 -15,6.716 -15,15 v 247.76 h -15.77 c -13.067,0 -25.353,5.09 -34.598,14.334 -9.235,9.236 -14.322,21.52 -14.322,34.586 0,13.066 5.087,25.35 14.323,34.587 9.238,9.236 21.524,14.323 34.597,14.323 h 61.54 c 13.067,0 25.351,-5.087 34.586,-14.323 9.237,-9.236 14.324,-21.52 14.324,-34.587 0,-13.067 -5.087,-25.351 -14.323,-34.586 -9.242,-9.243 -21.525,-14.334 -34.587,-14.334 h -15.77 v -232.76 h 143.25 v 21.53 h -12.709 c -13.061,0 -25.344,5.09 -34.587,14.333 -9.243,9.242 -14.333,21.525 -14.333,34.587 0,12.872 5.224,25.478 14.333,34.587 9.237,9.236 21.52,14.323 34.587,14.323 h 61.539 c 13.066,0 25.349,-5.087 34.587,-14.323 9.108,-9.109 14.333,-21.715 14.333,-34.587 0,-13.062 -5.09,-25.345 -14.333,-34.586 -9.244,-9.244 -21.527,-14.334 -34.587,-14.334 h -18.83 v -21.53 h 152.63 v 21.53 h -19.03 c -12.872,0 -25.478,5.225 -34.586,14.333 -9.237,9.236 -14.324,21.52 -14.324,34.587 0,13.067 5.087,25.351 14.323,34.586 9.237,9.237 21.52,14.324 34.587,14.324 h 15.771 v 41.7 h -161.311 c -8.284,0 -15,6.716 -15,15 v 56.7 h -15.769 c -13.061,0 -25.344,5.09 -34.587,14.333 -9.243,9.242 -14.333,21.525 -14.333,34.587 0,12.872 5.224,25.478 14.333,34.587 9.237,9.236 21.52,14.323 34.587,14.323 h 61.539 c 13.066,0 25.349,-5.087 34.587,-14.323 9.108,-9.109 14.333,-21.715 14.333,-34.587 0,-13.062 -5.09,-25.345 -14.333,-34.586 -9.244,-9.244 -21.527,-14.334 -34.587,-14.334 h -15.77 v -41.7 h 146.311 v 41.7 h -15.771 c -12.872,0 -25.478,5.225 -34.586,14.333 -9.237,9.236 -14.324,21.52 -14.324,34.587 0,13.067 5.087,25.351 14.323,34.586 9.237,9.237 21.52,14.324 34.587,14.324 h 61.55 c 13.066,0 25.35,-5.087 34.588,-14.324 9.235,-9.236 14.322,-21.52 14.322,-34.586 0,-13.066 -5.087,-25.35 -14.323,-34.586 -9.109,-9.11 -21.716,-14.334 -34.587,-14.334" id="path2354" style="fill-rule:nonzero"/></g></g></svg>