<?xml version="1.0" ?><!DOCTYPE svg  PUBLIC '-//W3C//DTD SVG 1.1//EN'  'http://www.w3.org/Graphics/SVG/1.1/DTD/svg11.dtd'><svg xmlns="http://www.w3.org/2000/svg" xmlns:xlink="http://www.w3.org/1999/xlink" version="1.1" id="Layer_1" width="512px" height="512px" viewBox="0 0 512 512" enable-background="new 0 0 512 512" xml:space="preserve"><g><g><polygon fill-rule="evenodd" clip-rule="evenodd" fill="#00A5FF" points="184.729,353.247 263.395,353.247 275.984,433.597     172.143,433.597   "/></g><g><path fill-rule="evenodd" clip-rule="evenodd" fill="#30D8B8" d="M78.918,456.499h290.287c4.713,0,8.551-3.843,8.551-8.552v-12.87    c0-11.78-9.635-21.422-21.418-21.422H91.789c-11.783,0-21.422,9.642-21.422,21.422v12.87    C70.367,452.656,74.205,456.499,78.918,456.499z"/></g><g><path fill-rule="evenodd" clip-rule="evenodd" fill="#30D8B8" d="M23.051,55.501h402.018c4.711,0,8.555,3.843,8.555,8.556v259.298    H14.5V64.057C14.5,59.344,18.342,55.501,23.051,55.501L23.051,55.501z M433.623,337.156v16.601c0,4.713-3.844,8.555-8.555,8.555    H23.051c-4.709,0-8.551-3.842-8.551-8.555v-16.601H433.623z"/></g><g><path fill-rule="evenodd" clip-rule="evenodd" fill="#FFD527" d="M146.008,164.621h28.332c2.969,0,5.396,2.426,5.396,5.395    v118.825c0,2.968-2.428,5.395-5.396,5.395h-28.332c-2.971,0-5.398-2.423-5.398-5.395V170.016    C140.609,167.043,143.037,164.621,146.008,164.621z"/></g><g><path fill-rule="evenodd" clip-rule="evenodd" fill="#FFD527" d="M209.861,226.464c9.445,0,18.891,0,28.332,0    c2.977,0,5.398,2.423,5.398,5.395c0,24.587,0,32.396,0,56.979c0,2.972-2.426,5.398-5.398,5.398c-9.441,0-18.887,0-28.332,0    c-2.969,0-5.395-2.423-5.395-5.398c0-24.583,0-32.392,0-56.979C204.467,228.887,206.893,226.464,209.861,226.464z"/></g><g><path fill-rule="evenodd" clip-rule="evenodd" fill="#FF9900" d="M273.721,190.49c9.443,0,18.889,0,28.334,0    c2.973,0,5.395,2.423,5.395,5.395c0,36.575,0,56.381,0,92.956c0,2.972-2.426,5.395-5.395,5.395c-9.445,0-18.891,0-28.334,0    c-2.971,0-5.398-2.423-5.398-5.395c0-36.575,0-56.381,0-92.956C268.322,192.913,270.746,190.49,273.721,190.49z"/></g><g><path fill-rule="evenodd" clip-rule="evenodd" fill="#FFD527" d="M337.58,226.464c9.443,0,18.885,0,28.332,0    c2.971,0,5.395,2.423,5.395,5.395c0,24.587,0,32.396,0,56.979c0,2.972-2.424,5.398-5.395,5.398c-9.447,0-18.889,0-28.332,0    c-2.973,0-5.395-2.423-5.395-5.398c0-24.583,0-32.392,0-56.979C332.186,228.887,334.607,226.464,337.58,226.464z"/></g><g><path fill-rule="evenodd" clip-rule="evenodd" fill="#FF9900" d="M82.146,190.49c9.445,0,18.893,0,28.334,0    c2.977,0,5.398,2.423,5.398,5.395c0,36.575,0,56.381,0,92.956c0,2.972-2.422,5.395-5.398,5.395c-9.441,0-18.889,0-28.334,0    c-2.967,0-5.395-2.423-5.395-5.395c0-36.575,0-56.381,0-92.956C76.752,192.913,79.176,190.49,82.146,190.49z"/></g><g><path fill-rule="evenodd" clip-rule="evenodd" fill="#FF318E" d="M160.174,121.748c8.336,0,15.139-6.798,15.139-15.137    c0-8.334-6.803-15.133-15.139-15.133c-8.334,0-15.133,6.799-15.133,15.133C145.041,114.95,151.84,121.748,160.174,121.748z"/></g><g><path fill-rule="evenodd" clip-rule="evenodd" fill="#FF318E" d="M224.031,183.592c8.334,0,15.133-6.799,15.133-15.137    c0-8.335-6.799-15.133-15.133-15.133c-8.338,0-15.137,6.798-15.137,15.133C208.895,176.793,215.693,183.592,224.031,183.592z"/></g><g><path fill-rule="evenodd" clip-rule="evenodd" fill="#FF318E" d="M287.885,147.619c8.338,0,15.137-6.799,15.137-15.138    c0-8.335-6.799-15.133-15.137-15.133c-8.334,0-15.133,6.798-15.133,15.133C272.752,140.82,279.551,147.619,287.885,147.619z"/></g><g><path fill-rule="evenodd" clip-rule="evenodd" fill="#FF318E" d="M351.355,184.262c8.336,0,15.139-6.799,15.139-15.133    c0-8.335-6.803-15.133-15.139-15.133c-8.334,0-15.133,6.798-15.133,15.133C336.223,177.463,343.021,184.262,351.355,184.262z"/></g><g><path fill-rule="evenodd" clip-rule="evenodd" fill="#FF318E" d="M96.314,147.614c8.338,0,15.137-6.798,15.137-15.133    s-6.799-15.133-15.137-15.133c-8.336,0-15.133,6.798-15.133,15.133S87.979,147.614,96.314,147.614z"/></g><g><rect x="14.5" y="323.354" fill-rule="evenodd" clip-rule="evenodd" fill="#00A5FF" width="419.123" height="13.802"/></g><g><g><rect x="394.575" y="305.702" transform="matrix(-0.7071 0.7071 -0.7071 -0.7071 928.8963 283.4622)" fill-rule="evenodd" clip-rule="evenodd" fill="#D8D7DA" width="22.332" height="56.821"/></g><g><path fill-rule="evenodd" clip-rule="evenodd" fill="#FF9900" d="M405.334,355.506l21.799-21.8     c3.912-3.91,11.256-2.939,16.354,2.154l45.379,45.379c25.328,25.332-10.666,61.326-35.994,35.997l-45.379-45.379     C402.395,366.76,401.424,359.416,405.334,355.506z"/></g><g><path fill-rule="evenodd" clip-rule="evenodd" fill="#EFEFEF" d="M249.762,182.204c34.279-34.284,89.857-34.284,124.145,0     c34.279,34.28,34.279,89.859,0,124.145c-34.287,34.28-89.865,34.28-124.145,0C215.477,272.063,215.477,216.484,249.762,182.204     L249.762,182.204z M232.258,164.701c-43.947,43.946-43.947,115.199,0,159.15c43.947,43.947,115.199,43.947,159.146,0     c43.951-43.951,43.951-115.204,0-159.15C347.457,120.754,276.205,120.754,232.258,164.701z"/></g><g><path fill-rule="evenodd" clip-rule="evenodd" fill="#FFD527" d="M423.689,337.156l-15.35,15.345l-3.006,3.005     c-1.752,1.752-2.521,4.188-2.385,6.806c0.172,3.229,1.729,6.73,4.543,9.546l7.762,7.761l35.992-35.993l-7.76-7.765     c-5.098-5.094-12.441-6.064-16.354-2.154l-3.004,3.005L423.689,337.156z"/></g></g></g><g><path d="M147.686,300.442h27.901c6.679,0,12.108-5.431,12.108-12.104V171.32c0-6.673-5.43-12.104-12.108-12.104h-27.901   c-6.678,0-12.103,5.431-12.103,12.104v117.019C135.583,295.012,141.008,300.442,147.686,300.442z M149.168,172.807h24.938v114.046   h-24.938V172.807z"/><path d="M313.463,196.801c0-6.678-5.431-12.109-12.108-12.109h-27.901c-6.678,0-12.104,5.432-12.104,12.109v91.538   c0,6.679,5.426,12.108,12.104,12.108h27.901c6.678,0,12.108-5.43,12.108-12.108V196.801z M299.873,286.857h-24.938v-88.581h24.938   V286.857z"/><path d="M84.803,300.447h27.9c6.679,0,12.104-5.43,12.104-12.108v-91.538c0-6.678-5.425-12.109-12.104-12.109h-27.9   c-6.678,0-12.108,5.432-12.108,12.109v91.538C72.694,295.018,78.125,300.447,84.803,300.447z M86.283,198.276h24.939v88.581H86.283   V198.276z"/><path d="M490.117,374.526l-44.687-44.687c-2.262-2.262-4.921-3.928-7.719-5.032V66.978c0-8.388-6.827-15.214-15.214-15.214H26.611   c-8.397,0-15.225,6.826-15.225,15.214v285.286c0,8.393,6.827,15.219,15.225,15.219h149.867l-5.796,36.973H94.294   c-15.378,0-27.885,12.512-27.885,27.891v12.672c0,8.393,6.821,15.219,15.214,15.219h285.863c8.388,0,15.215-6.826,15.215-15.219   v-12.672c0-15.379-12.513-27.891-27.896-27.891h-76.383l-5.797-36.973h122.874c1.078,2.644,2.665,5.191,4.879,7.405l44.687,44.696   c6.869,6.859,15.039,10.49,23.639,10.49c12.676,0,24.557-8.106,29.552-20.172C503.25,397.842,500.209,384.612,490.117,374.526z    M406.021,341.424l-12.889-12.89c0.329-0.318,0.69-0.595,1.014-0.918c1.678-1.673,3.18-3.467,4.741-5.224l13.079,13.085   L406.021,341.424z M237.42,318.014c-40.551-40.563-40.551-106.563,0-147.118c19.651-19.651,45.779-30.471,73.564-30.471   c27.789,0,53.912,10.819,73.559,30.471c19.646,19.646,30.465,45.769,30.465,73.554c0,27.789-10.818,53.912-30.465,73.564   c-19.646,19.641-45.77,30.459-73.559,30.459C283.199,348.473,257.071,337.654,237.42,318.014z M216.409,169.791   c0-4.47,3.642-8.111,8.111-8.111c0.876,0,1.714,0.181,2.526,0.451c-3.529,3.6-6.704,7.405-9.677,11.323   C216.791,172.328,216.409,171.098,216.409,169.791z M421.76,326.061l-14.364-14.365c7.56-10.786,13.191-22.666,16.732-35.258   v48.317C423.3,325.127,422.504,325.551,421.76,326.061z M382.828,337.447l13.802,13.802c-0.567,0.833-1.029,1.715-1.417,2.644   h-41.209C364.297,349.854,373.974,344.322,382.828,337.447z M26.611,65.354h395.887c0.881,0,1.63,0.742,1.63,1.624v145.488   c-5.383-19.147-15.527-36.729-29.982-51.179c-22.21-22.221-51.746-34.451-83.161-34.451c-26.988,0-52.559,9.082-73.32,25.708   c-3.727-2.829-8.324-4.454-13.144-4.454c-3.626,0-6.991,0.982-10.001,2.559l-33.417-32.365c1.386-2.855,2.229-6.014,2.229-9.396   c0-11.971-9.73-21.696-21.695-21.696c-11.96,0-21.695,9.726-21.695,21.696c0,0.483,0.111,0.929,0.143,1.401l-24.886,10.08   c-3.986-4.671-9.842-7.707-16.445-7.707c-11.965,0-21.695,9.735-21.695,21.701c0,11.965,9.73,21.7,21.695,21.7   c11.96,0,21.696-9.735,21.696-21.7c0-0.479-0.112-0.924-0.145-1.402l24.892-10.086c3.981,4.678,9.837,7.708,16.44,7.708   c3.62,0,6.986-0.977,9.99-2.548l33.422,32.36c-1.38,2.855-2.225,6.015-2.225,9.396c0,5.967,2.496,11.52,6.631,15.543   c-25.029,43.03-20.507,98.524,13.584,136.994H24.977V66.978C24.977,66.096,25.725,65.354,26.611,65.354z M161.637,116.994   c-4.469,0-8.105-3.631-8.105-8.106c0-4.47,3.637-8.111,8.105-8.111c4.47,0,8.111,3.642,8.111,8.111   C169.748,113.363,166.106,116.994,161.637,116.994z M106.859,134.363c0,4.469-3.637,8.111-8.106,8.111s-8.111-3.643-8.111-8.111   c0-4.471,3.642-8.111,8.111-8.111S106.859,129.893,106.859,134.363z M24.977,352.264v-16.351h212.093   c9.396,7.623,19.812,13.626,30.896,17.979H26.611C25.725,353.893,24.977,353.145,24.977,352.264z M369.111,432.346v12.672   c0,0.887-0.743,1.629-1.625,1.629H81.623c-0.881,0-1.63-0.742-1.63-1.629v-12.672c0-7.883,6.413-14.301,14.301-14.301h260.511   C362.693,418.045,369.111,424.463,369.111,432.346z M264.662,404.455h-80.221l5.797-36.973h68.627L264.662,404.455z    M407.863,358.793l21.467-21.473c0.334-0.335,1.029-0.367,1.316-0.367c1.295,0,3.339,0.653,5.176,2.495l2.846,2.846l-25.837,25.831   l-2.84-2.84C407.358,362.656,407.114,359.541,407.863,358.793z M485.695,404.711c-2.867,6.932-9.858,11.773-16.992,11.773   c-4.916,0-9.768-2.251-14.031-6.514l-32.237-32.238l25.836-25.836l32.243,32.238C488.943,392.57,487.378,400.645,485.695,404.711z"/><path d="M376.909,310.379c17.613-17.607,27.312-41.023,27.312-65.93c0-24.902-9.693-48.318-27.312-65.926   c-17.608-17.613-41.023-27.312-65.925-27.312c-24.907,0-48.316,9.698-65.937,27.312c-36.347,36.352-36.347,95.504,0.005,131.855   c17.615,17.613,41.024,27.313,65.932,27.313C335.886,337.691,359.301,327.992,376.909,310.379z M232.181,233.705h4.81v40.158   C231.92,261.049,230.359,247.199,232.181,233.705z M248.939,294.38c1.035-1.794,1.635-3.859,1.635-6.046v-56.11   c0-6.673-5.426-12.108-12.104-12.108h-3.254c3.737-11.7,10.176-22.721,19.439-31.988c15.049-15.039,35.053-23.326,56.328-23.326   s41.277,8.287,56.322,23.326c15.044,15.049,23.33,35.051,23.33,56.322c0,16.609-5.111,32.402-14.481,45.705   c0.091-0.594,0.187-1.199,0.187-1.82v-56.11c0-6.673-5.426-12.108-12.104-12.108h-27.901c-6.678,0-12.108,5.436-12.108,12.108   v56.11c0,6.678,5.431,12.108,12.108,12.108h27.901c1.428,0,2.776-0.292,4.045-0.749c-0.34,0.355-0.632,0.738-0.977,1.078   c-15.045,15.044-35.047,23.33-56.322,23.33s-41.279-8.286-56.328-23.33C252.607,298.723,250.712,296.583,248.939,294.38z    M362.757,233.705v53.147h-24.938v-53.147H362.757z"/></g></svg>