<svg xmlns="http://www.w3.org/2000/svg" fill="none" viewBox="0 0 24 24" id="Seaborn--Streamline-Svg-Logos" height="24" width="24">
  <desc>
    Seaborn Streamline Icon: https://streamlinehq.com
  </desc>
  <path fill="#ffffff" d="M3.07125 9.25085c-0.3584 0 -0.713315 0.0706 -1.04443 0.20775 -0.3311125 0.13715 -0.6319925 0.3382 -0.885415 0.591625 -0.2534225 0.253425 -0.454465 0.5543 -0.591615 0.8854 -0.1371525 0.331125 -0.20775 0.686025 -0.20775 1.044425 0 0.3584 0.0705975 0.7133 0.20775 1.044425 0.13715 0.3311 0.3381925 0.632 0.591615 0.885425 0.2534225 0.2534 0.5543025 0.45445 0.885415 0.5916 0.331115 0.13715 0.68603 0.20775 1.04443 0.20775 0.358375 0 0.7133 -0.0706 1.0444 -0.20775 0.331125 -0.13715 0.632 -0.3382 0.885425 -0.5916 0.253425 -0.253425 0.454475 -0.554325 0.591625 -0.885425 0.132725 -0.320425 0.203125 -0.66315 0.207525 -1.00975l0.000225 -0.034675 -0.000225 -0.034675c-0.0044 -0.3466 -0.0748 -0.6893 -0.207525 -1.00975 -0.13715 -0.3311 -0.3382 -0.631975 -0.591625 -0.8854 -0.253425 -0.253425 -0.5543 -0.454475 -0.885425 -0.591625 -0.3311 -0.13715 -0.686025 -0.20775 -1.0444 -0.20775Z" stroke-width="0.25"></path>
  <path fill="#afdad2" stroke="#ffffff" stroke-width="0.0625" d="M2.447895 10.817775c0.0278775 0 0.05463 -0.011075 0.07433 -0.030775 0.019725 -0.019725 0.0308 -0.04645 0.0308 -0.074325 0 -0.0279 -0.011075 -0.054625 -0.0308 -0.07435 -0.0197 -0.0197 -0.0464525 -0.030775 -0.07433 -0.030775 -0.02788 0 -0.05462 0.011075 -0.0743325 0.030775 -0.0197125 0.019725 -0.03079 0.04645 -0.03079 0.07435 0 0.027875 0.0110775 0.0546 0.03079 0.074325 0.0197125 0.0197 0.0464525 0.030775 0.0743325 0.030775Z"></path>
  <path fill="#afdad2" stroke="#ffffff" stroke-width="0.0625" d="M2.22144 10.976325c0.027 0 0.0528975 -0.010725 0.07199 -0.029825 0.0190925 -0.019075 0.02982 -0.044975 0.02982 -0.071975 0 -0.027 -0.0107275 -0.0529 -0.02982 -0.072 -0.0190925 -0.0191 -0.04499 -0.029825 -0.07199 -0.029825 -0.0270025 0 -0.0529 0.010725 -0.0719925 0.029825s-0.0298175 0.045 -0.0298175 0.072c0 0.027 0.010725 0.0529 0.0298175 0.071975 0.0190925 0.0191 0.04499 0.029825 0.0719925 0.029825Z"></path>
  <path fill="#afdad2" stroke="#ffffff" stroke-width="0.0625" d="M2.003815 11.0771c0.0254225 0 0.049805 -0.0101 0.0677825 -0.028075 0.017975 -0.017975 0.028075 -0.042375 0.028075 -0.0678 0 -0.025425 -0.0101 -0.0498 -0.028075 -0.067775 -0.0179775 -0.017975 -0.04236 -0.028075 -0.0677825 -0.028075 -0.02542 0 -0.049805 0.0101 -0.06778 0.028075 -0.017975 0.017975 -0.028075 0.04235 -0.028075 0.067775 0 0.025425 0.0101 0.049825 0.028075 0.0678 0.017975 0.017975 0.04236 0.028075 0.06778 0.028075Z"></path>
  <path fill="#afdad2" stroke="#ffffff" stroke-width="0.0625" d="M2.63875 10.692675c0.0287 0 0.056225 -0.011425 0.076525 -0.0317 0.0203 -0.0203 0.0317 -0.04785 0.0317 -0.07655 0 -0.0287 -0.0114 -0.056225 -0.0317 -0.076525s-0.047825 -0.0317 -0.076525 -0.0317c-0.0287 0 -0.056225 0.0114 -0.076525 0.0317s-0.0317 0.047825 -0.0317 0.076525c0 0.0287 0.0114 0.05625 0.0317 0.07655 0.0203 0.020275 0.047825 0.0317 0.076525 0.0317Z"></path>
  <path fill="#afdad2" stroke="#ffffff" stroke-width="0.0625" d="M1.8404275 10.849925c0.0192875 0 0.0377875 -0.007675 0.051425 -0.0213 0.0136375 -0.01365 0.0213 -0.03215 0.0213 -0.051425 0 -0.0193 -0.0076625 -0.0378 -0.0213 -0.051425 -0.0136375 -0.01365 -0.0321375 -0.0213 -0.051425 -0.0213s-0.0377875 0.00765 -0.051425 0.0213c-0.01364 0.013625 -0.0213025 0.032125 -0.0213025 0.051425 0 0.019275 0.0076625 0.037775 0.0213025 0.051425 0.0136375 0.013625 0.0321375 0.0213 0.051425 0.0213Z"></path>
  <path fill="#afdad2" stroke="#ffffff" stroke-width="0.0625" d="M1.6608675 11.248125c0.022915 0 0.0448925 -0.0091 0.0610975 -0.0253 0.0162025 -0.0162 0.025305 -0.0382 0.025305 -0.0611 0 -0.022925 -0.0091025 -0.0449 -0.025305 -0.0611 -0.016205 -0.0162 -0.0381825 -0.0253 -0.0610975 -0.0253 -0.022915 0 -0.044895 0.0091 -0.0610975 0.0253s-0.0253075 0.038175 -0.0253075 0.0611c0 0.0229 0.009105 0.0449 0.0253075 0.0611s0.0381825 0.0253 0.0610975 0.0253Z"></path>
  <path fill="#afdad2" stroke="#ffffff" stroke-width="0.0625" d="M1.7708625 10.564075c0.0276125 0 0.054095 -0.010975 0.07362 -0.0305 0.019525 -0.019525 0.030495 -0.046025 0.030495 -0.073625 0 -0.0276 -0.01097 -0.0541 -0.030495 -0.073625 -0.019525 -0.019525 -0.0460075 -0.0305 -0.07362 -0.0305 -0.0276125 0 -0.054095 0.010975 -0.07362 0.0305 -0.019525 0.019525 -0.030495 0.046025 -0.030495 0.073625 0 0.0276 0.01097 0.0541 0.030495 0.073625 0.019525 0.019525 0.0460075 0.0305 0.07362 0.0305Z"></path>
  <path fill="#afdad2" stroke="#ffffff" stroke-width="0.0625" d="M2.05159 10.75895c0.0213525 0 0.041835 -0.0085 0.056935 -0.0236 0.0151 -0.0151 0.0235825 -0.035575 0.0235825 -0.056925s-0.0084825 -0.04185 -0.0235825 -0.05695c-0.0151 -0.0151 -0.0355825 -0.023575 -0.056935 -0.023575 -0.021355 0 -0.0418375 0.008475 -0.0569375 0.023575 -0.0151 0.0151 -0.0235825 0.0356 -0.0235825 0.05695s0.0084825 0.041825 0.0235825 0.056925c0.0151 0.0151 0.0355825 0.0236 0.0569375 0.0236Z"></path>
  <path fill="#afdad2" stroke="#ffffff" stroke-width="0.0625" d="M3.4401 10.518525c0.024975 0 0.048925 -0.009925 0.066575 -0.0276 0.017675 -0.01765 0.027575 -0.0416 0.027575 -0.066575 0 -0.024975 -0.0099 -0.048925 -0.027575 -0.066575 -0.01765 -0.01765 -0.0416 -0.027575 -0.066575 -0.027575 -0.024975 0 -0.048925 0.009925 -0.066575 0.027575 -0.01765 0.01765 -0.027575 0.0416 -0.027575 0.066575 0 0.024975 0.009925 0.048925 0.027575 0.066575 0.01765 0.017675 0.0416 0.0276 0.066575 0.0276Z"></path>
  <path fill="#afdad2" stroke="#ffffff" stroke-width="0.0625" d="M1.4652775 11.0176c0.0151375 0 0.029655 -0.006025 0.04036 -0.016725 0.0107025 -0.0107 0.016715 -0.025225 0.016715 -0.04035 0 -0.01515 -0.0060125 -0.029675 -0.016715 -0.040375 -0.010705 -0.0107 -0.0252225 -0.0167 -0.04036 -0.0167 -0.015135 0 -0.029655 0.006 -0.0403575 0.0167 -0.0107025 0.0107 -0.0167175 0.025225 -0.0167175 0.040375 0 0.015125 0.006015 0.02965 0.0167175 0.04035 0.0107025 0.0107 0.0252225 0.016725 0.0403575 0.016725Z"></path>
  <path fill="#afdad2" stroke="#ffffff" stroke-width="0.0625" d="M1.6548825 10.96405c0.01796 0 0.0351875 -0.007125 0.0478875 -0.019825 0.0127025 -0.0127 0.0198375 -0.029925 0.0198375 -0.047875 0 -0.017975 -0.007135 -0.0352 -0.0198375 -0.0479 -0.0127 -0.0127 -0.0299275 -0.019825 -0.0478875 -0.019825s-0.0351875 0.007125 -0.0478875 0.019825c-0.0127 0.0127 -0.0198375 0.029925 -0.0198375 0.0479 0 0.01795 0.0071375 0.035175 0.0198375 0.047875 0.0127 0.0127 0.0299275 0.019825 0.0478875 0.019825Z"></path>
  <path fill="#afdad2" stroke="#ffffff" stroke-width="0.0625" d="M1.3092675 10.749525c0.02381 0 0.04665 -0.009475 0.0634875 -0.0263 0.0168375 -0.01685 0.0262975 -0.039675 0.0262975 -0.0635 0 -0.0238 -0.00946 -0.04665 -0.0262975 -0.063475 -0.0168375 -0.01685 -0.0396775 -0.0263 -0.0634875 -0.0263 -0.0238125 0 -0.04665 0.00945 -0.0634875 0.0263 -0.0168375 0.016825 -0.0262975 0.039675 -0.0262975 0.063475 0 0.023825 0.00946 0.04665 0.0262975 0.0635 0.0168375 0.016825 0.039675 0.0263 0.0634875 0.0263Z"></path>
  <path fill="#afdad2" stroke="#ffffff" stroke-width="0.0625" d="M1.662405 10.7097c0.0124125 0 0.0243175 -0.004925 0.033095 -0.0137 0.0087775 -0.0088 0.0137075 -0.0207 0.0137075 -0.0331 0 -0.012425 -0.00493 -0.024325 -0.0137075 -0.0331 -0.0087775 -0.008775 -0.0206825 -0.0137 -0.033095 -0.0137s-0.02432 0.004925 -0.033095 0.0137c-0.0087775 0.008775 -0.01371 0.020675 -0.01371 0.0331 0 0.0124 0.0049325 0.0243 0.01371 0.0331 0.008775 0.008775 0.0206825 0.0137 0.033095 0.0137Z"></path>
  <path fill="#afdad2" stroke="#ffffff" stroke-width="0.0625" d="M2.28916 10.6368c0.0231725 0 0.0453975 -0.009225 0.061785 -0.0256 0.016385 -0.0164 0.02559 -0.038625 0.02559 -0.061775 0 -0.023175 -0.009205 -0.0454 -0.02559 -0.0618 -0.0163875 -0.016375 -0.0386125 -0.0256 -0.061785 -0.0256s-0.0454 0.009225 -0.061785 0.0256c-0.016385 0.0164 -0.0255925 0.038625 -0.0255925 0.0618 0 0.02315 0.0092075 0.045375 0.0255925 0.061775 0.016385 0.016375 0.0386125 0.0256 0.061785 0.0256Z"></path>
  <path fill="#afdad2" stroke="#ffffff" stroke-width="0.0625" d="M2.952975 10.687325c0.02 0 0.039175 -0.00795 0.053325 -0.0221 0.014125 -0.01415 0.022075 -0.033325 0.022075 -0.053325 0 -0.02 -0.00795 -0.039175 -0.022075 -0.053325 -0.01415 -0.014125 -0.033325 -0.022075 -0.053325 -0.022075 -0.02 0 -0.039175 0.00795 -0.053325 0.022075 -0.01415 0.01415 -0.022075 0.033325 -0.022075 0.053325 0 0.02 0.007925 0.039175 0.022075 0.053325 0.01415 0.01415 0.033325 0.0221 0.053325 0.0221Z"></path>
  <path fill="#afdad2" stroke="#ffffff" stroke-width="0.0625" d="M3.090975 10.217c0.0131 0 0.02565 -0.0052 0.0349 -0.014475 0.00925 -0.00925 0.01445 -0.0218 0.01445 -0.034875 0 -0.0131 -0.0052 -0.02565 -0.01445 -0.0349 -0.00925 -0.009275 -0.0218 -0.014475 -0.0349 -0.014475 -0.013075 0 -0.02565 0.0052 -0.0349 0.014475 -0.00925 0.00925 -0.01445 0.0218 -0.01445 0.0349 0 0.013075 0.0052 0.025625 0.01445 0.034875 0.00925 0.009275 0.021825 0.014475 0.0349 0.014475Z"></path>
  <path fill="#afdad2" stroke="#ffffff" stroke-width="0.0625" d="M3.251525 10.501125c0.021875 0 0.04285 -0.0087 0.058325 -0.024175 0.015475 -0.01545 0.02415 -0.036425 0.02415 -0.0583s-0.008675 -0.04285 -0.02415 -0.058325c-0.015475 -0.01545 -0.03645 -0.02415 -0.058325 -0.02415 -0.02185 0 -0.04285 0.0087 -0.0583 0.02415 -0.015475 0.015475 -0.02415 0.03645 -0.02415 0.058325s0.008675 0.04285 0.02415 0.0583c0.01545 0.015475 0.03645 0.024175 0.0583 0.024175Z"></path>
  <path fill="#afdad2" stroke="#ffffff" stroke-width="0.0625" d="M2.4276325 10.4528c0.022475 0 0.04403 -0.008925 0.05992 -0.024825 0.0158975 -0.015875 0.0248225 -0.03745 0.0248225 -0.0599 0 -0.022475 -0.008925 -0.04405 -0.0248225 -0.059925 -0.01589 -0.0159 -0.037445 -0.024825 -0.05992 -0.024825 -0.0224725 0 -0.0440275 0.008925 -0.0599175 0.024825 -0.01589 0.015875 -0.02482 0.03745 -0.02482 0.059925 0 0.02245 0.00893 0.044025 0.02482 0.0599 0.01589 0.0159 0.037445 0.024825 0.0599175 0.024825Z"></path>
  <path fill="#afdad2" stroke="#ffffff" stroke-width="0.0625" d="M1.366125 11.2674c0.0182375 0 0.03573 -0.007225 0.0486225 -0.020125 0.012895 -0.0129 0.0201425 -0.0304 0.0201425 -0.048625 0 -0.01825 -0.0072475 -0.035725 -0.0201425 -0.048625 -0.0128925 -0.0129 -0.030385 -0.02015 -0.0486225 -0.02015 -0.018235 0 -0.0357275 0.00725 -0.0486225 0.02015 -0.012895 0.0129 -0.02014 0.030375 -0.02014 0.048625 0 0.018225 0.007245 0.035725 0.02014 0.048625 0.012895 0.0129 0.0303875 0.020125 0.0486225 0.020125Z"></path>
  <path fill="#afdad2" stroke="#ffffff" stroke-width="0.0625" d="M3.63085 10.536725c0.027775 0 0.0544 -0.01105 0.07405 -0.030675 0.01965 -0.01965 0.030675 -0.046275 0.030675 -0.07405 0 -0.027775 -0.011025 -0.054425 -0.030675 -0.07405 -0.01965 -0.01965 -0.046275 -0.030675 -0.07405 -0.030675 -0.027775 0 -0.054425 0.011025 -0.07405 0.030675 -0.01965 0.019625 -0.030675 0.046275 -0.030675 0.07405 0 0.027775 0.011025 0.0544 0.030675 0.07405 0.019625 0.019625 0.046275 0.030675 0.07405 0.030675Z"></path>
  <path fill="#afdad2" stroke="#ffffff" stroke-width="0.0625" d="M2.620425 10.465575c0.025475 0 0.049925 -0.010125 0.067975 -0.028175 0.018025 -0.018025 0.02815 -0.042475 0.02815 -0.06795 0 -0.0255 -0.010125 -0.04995 -0.02815 -0.067975 -0.01805 -0.018025 -0.0425 -0.02815 -0.067975 -0.02815 -0.0255 0 -0.04995 0.010125 -0.067975 0.02815 -0.018025 0.018025 -0.02815 0.042475 -0.02815 0.067975 0 0.025475 0.010125 0.049925 0.02815 0.06795 0.018025 0.01805 0.042475 0.028175 0.067975 0.028175Z"></path>
  <path fill="#afdad2" stroke="#ffffff" stroke-width="0.0625" d="M1.50367 10.5431c0.023635 0 0.046305 -0.009375 0.0630175 -0.0261 0.0167125 -0.0167 0.0261025 -0.039375 0.0261025 -0.063 0 -0.02365 -0.00939 -0.046325 -0.0261025 -0.063025 -0.0167125 -0.016725 -0.0393825 -0.0261 -0.0630175 -0.0261 -0.023635 0 -0.046305 0.009375 -0.0630175 0.0261 -0.0167125 0.0167 -0.0261025 0.039375 -0.0261025 0.063025 0 0.023625 0.00939 0.0463 0.0261025 0.063 0.0167125 0.016725 0.0393825 0.0261 0.0630175 0.0261Z"></path>
  <path fill="#afdad2" stroke="#ffffff" stroke-width="0.0625" d="M1.99964 10.313125c0.0273225 0 0.0535325 -0.01085 0.072855 -0.030175 0.01932 -0.019325 0.0301775 -0.045525 0.0301775 -0.07285 0 -0.027325 -0.0108575 -0.05355 -0.0301775 -0.072875 -0.0193225 -0.019325 -0.0455325 -0.030175 -0.072855 -0.030175 -0.027325 0 -0.053535 0.01085 -0.072855 0.030175 -0.0193225 0.019325 -0.0301775 0.04555 -0.0301775 0.072875 0 0.027325 0.010855 0.053525 0.0301775 0.07285 0.01932 0.019325 0.04553 0.030175 0.072855 0.030175Z"></path>
  <path fill="#afdad2" stroke="#ffffff" stroke-width="0.0625" d="M3.93265 10.45175c0.016875 0 0.033075 -0.0067 0.045 -0.01865 0.01195 -0.011925 0.01865 -0.028125 0.01865 -0.045 0 -0.016875 -0.0067 -0.033075 -0.01865 -0.045 -0.011925 -0.011925 -0.028125 -0.018625 -0.045 -0.018625 -0.016875 0 -0.03305 0.0067 -0.045 0.018625 -0.011925 0.011925 -0.018625 0.028125 -0.018625 0.045 0 0.016875 0.0067 0.033075 0.018625 0.045 0.01195 0.01195 0.028125 0.01865 0.045 0.01865Z"></path>
  <path fill="#afdad2" stroke="#ffffff" stroke-width="0.0625" d="M1.715725 10.19195c0.02147 0 0.0420625 -0.008525 0.057245 -0.023725 0.0151825 -0.015175 0.0237125 -0.035775 0.0237125 -0.057225 0 -0.021475 -0.00853 -0.042075 -0.0237125 -0.05725 -0.0151825 -0.0152 -0.035775 -0.023725 -0.057245 -0.023725 -0.02147 0 -0.042065 0.008525 -0.0572475 0.023725 -0.0151825 0.015175 -0.0237125 0.035775 -0.0237125 0.05725 0 0.02145 0.00853 0.04205 0.0237125 0.057225 0.0151825 0.0152 0.0357775 0.023725 0.0572475 0.023725Z"></path>
  <path fill="#afdad2" stroke="#ffffff" stroke-width="0.0625" d="M2.080745 10.55455c0.0182725 0 0.0358 -0.00725 0.0487225 -0.020175 0.01292 -0.012925 0.02018 -0.03045 0.02018 -0.048725 0 -0.018275 -0.00726 -0.0358 -0.02018 -0.048725 -0.0129225 -0.012925 -0.03045 -0.020175 -0.0487225 -0.020175 -0.018275 0 -0.0358025 0.00725 -0.0487225 0.020175 -0.0129225 0.012925 -0.0201825 0.03045 -0.0201825 0.048725 0 0.018275 0.00726 0.0358 0.0201825 0.048725 0.01292 0.012925 0.0304475 0.020175 0.0487225 0.020175Z"></path>
  <path fill="#afdad2" stroke="#ffffff" stroke-width="0.0625" d="M2.245785 10.4049c0.018565 0 0.0363725 -0.007375 0.0495 -0.0205 0.0131275 -0.013125 0.0205025 -0.03095 0.0205025 -0.0495 0 -0.018575 -0.007375 -0.036375 -0.0205025 -0.0495 -0.0131275 -0.013125 -0.030935 -0.0205 -0.0495 -0.0205s-0.0363725 0.007375 -0.0495 0.0205c-0.0131275 0.013125 -0.020505 0.030925 -0.020505 0.0495 0 0.01855 0.0073775 0.036375 0.020505 0.0495 0.0131275 0.013125 0.030935 0.0205 0.0495 0.0205Z"></path>
  <path fill="#afdad2" stroke="#ffffff" stroke-width="0.0625" d="M1.164715 10.58285c0.01869 0 0.0366175 -0.007425 0.049835 -0.02065 0.0132175 -0.0132 0.0206425 -0.03115 0.0206425 -0.049825 0 -0.0187 -0.007425 -0.036625 -0.0206425 -0.04985 -0.0132175 -0.0132 -0.031145 -0.020625 -0.049835 -0.020625s-0.0366175 0.007425 -0.049835 0.020625c-0.013215 0.013225 -0.0206425 0.03115 -0.0206425 0.04985 0 0.018675 0.0074275 0.036625 0.0206425 0.049825 0.0132175 0.013225 0.031145 0.02065 0.049835 0.02065Z"></path>
  <path fill="#afdad2" stroke="#ffffff" stroke-width="0.0625" d="M1.358845 10.308875c0.0171475 0 0.033595 -0.0068 0.04572 -0.018925 0.012125 -0.012125 0.0189375 -0.028575 0.0189375 -0.045725 0 -0.01715 -0.0068125 -0.0336 -0.0189375 -0.045725 -0.012125 -0.012125 -0.0285725 -0.018925 -0.04572 -0.018925 -0.017145 0 -0.0335925 0.0068 -0.0457175 0.018925 -0.012125 0.012125 -0.0189375 0.028575 -0.0189375 0.045725 0 0.01715 0.0068125 0.0336 0.0189375 0.045725 0.012125 0.012125 0.0285725 0.018925 0.0457175 0.018925Z"></path>
  <path fill="#afdad2" stroke="#ffffff" stroke-width="0.0625" d="M2.85045 10.509375c0.014375 0 0.028175 -0.0057 0.038325 -0.015875 0.010175 -0.01015 0.015875 -0.023925 0.015875 -0.0383 0 -0.014375 -0.0057 -0.028175 -0.015875 -0.038325 -0.01015 -0.010175 -0.02395 -0.015875 -0.038325 -0.015875 -0.014375 0 -0.02815 0.0057 -0.038325 0.015875 -0.01015 0.01015 -0.01585 0.02395 -0.01585 0.038325 0 0.014375 0.0057 0.02815 0.01585 0.0383 0.010175 0.010175 0.02395 0.015875 0.038325 0.015875Z"></path>
  <path fill="#afdad2" stroke="#ffffff" stroke-width="0.0625" d="M1.114955 10.939625c0.023755 0 0.0465375 -0.009425 0.0633325 -0.026225 0.0167975 -0.0168 0.0262325 -0.039575 0.0262325 -0.063325 0 -0.023775 -0.009435 -0.04655 -0.0262325 -0.06335 -0.016795 -0.0168 -0.0395775 -0.026225 -0.0633325 -0.026225 -0.0237525 0 -0.046535 0.009425 -0.0633325 0.026225 -0.016795 0.0168 -0.0262325 0.039575 -0.0262325 0.06335 0 0.02375 0.0094375 0.046525 0.0262325 0.063325 0.0167975 0.0168 0.03958 0.026225 0.0633325 0.026225Z"></path>
  <path fill="#afdad2" stroke="#ffffff" stroke-width="0.0625" d="M0.9149875 10.788475c0.0178575 0 0.034985 -0.0071 0.0476125 -0.019725 0.012625 -0.012625 0.01972 -0.02975 0.01972 -0.0476 0 -0.017875 -0.007095 -0.035 -0.01972 -0.047625 -0.0126275 -0.012625 -0.029755 -0.019725 -0.0476125 -0.019725 -0.017855 0 -0.0349825 0.0071 -0.04761 0.019725 -0.0126275 0.012625 -0.0197225 0.02975 -0.0197225 0.047625 0 0.01785 0.007095 0.034975 0.0197225 0.0476 0.0126275 0.012625 0.029755 0.019725 0.04761 0.019725Z"></path>
  <path fill="#afdad2" stroke="#ffffff" stroke-width="0.0625" d="M3.03525 10.493725c0.017975 0 0.0352 -0.007125 0.0479 -0.019825 0.0127 -0.0127 0.019825 -0.029925 0.019825 -0.0479 0 -0.01795 -0.007125 -0.035175 -0.019825 -0.047875 -0.0127 -0.0127 -0.029925 -0.01985 -0.0479 -0.01985 -0.01795 0 -0.035175 0.00715 -0.047875 0.01985 -0.0127 0.0127 -0.01985 0.029925 -0.01985 0.047875 0 0.017975 0.00715 0.0352 0.01985 0.0479 0.0127 0.0127 0.029925 0.019825 0.047875 0.019825Z"></path>
  <path fill="#afdad2" stroke="#ffffff" stroke-width="0.0625" d="M1.4956475 10.845425c0.0276925 0 0.0542525 -0.011 0.0738325 -0.030575 0.01958 -0.0196 0.0305825 -0.04615 0.0305825 -0.07385 0 -0.027675 -0.0110025 -0.05425 -0.0305825 -0.073825 -0.01958 -0.019575 -0.04614 -0.030575 -0.0738325 -0.030575 -0.02769 0 -0.05425 0.011 -0.07383 0.030575 -0.01958 0.019575 -0.0305825 0.04615 -0.0305825 0.073825 0 0.0277 0.0110025 0.05425 0.0305825 0.07385 0.01958 0.019575 0.04614 0.030575 0.07383 0.030575Z"></path>
  <path fill="#afdad2" stroke="#ffffff" stroke-width="0.0625" d="M3.7956 10.3706c0.02775 0 0.054375 -0.011025 0.074 -0.03065 0.019625 -0.019625 0.030675 -0.046275 0.030675 -0.074025 0 -0.02775 -0.01105 -0.054375 -0.030675 -0.074 -0.019625 -0.01965 -0.04625 -0.030675 -0.074 -0.030675 -0.027775 0 -0.0544 0.011025 -0.074025 0.030675 -0.019625 0.019625 -0.03065 0.04625 -0.03065 0.074 0 0.02775 0.011025 0.0544 0.03065 0.074025 0.019625 0.019625 0.04625 0.03065 0.074025 0.03065Z"></path>
  <path fill="#afdad2" stroke="#ffffff" stroke-width="0.0625" d="M1.1704925 11.356975c0.0161125 0 0.031565 -0.0064 0.0429575 -0.0178 0.0113925 -0.011375 0.017795 -0.02685 0.017795 -0.04295 0 -0.0161 -0.0064025 -0.031575 -0.017795 -0.04295 -0.0113925 -0.0114 -0.026845 -0.0178 -0.0429575 -0.0178 -0.01611 0 -0.031565 0.0064 -0.0429575 0.0178 -0.0113925 0.011375 -0.017795 0.02685 -0.017795 0.04295 0 0.0161 0.0064025 0.031575 0.017795 0.04295 0.0113925 0.0114 0.0268475 0.0178 0.0429575 0.0178Z"></path>
  <path fill="#afdad2" stroke="#ffffff" stroke-width="0.0625" d="M2.688275 10.17195c0.02215 0 0.0434 -0.008825 0.05905 -0.024475 0.015675 -0.015675 0.024475 -0.036925 0.024475 -0.059075 0 -0.02215 -0.0088 -0.0434 -0.024475 -0.05905 -0.01565 -0.015675 -0.0369 -0.024475 -0.05905 -0.024475 -0.022175 0 -0.0434 0.0088 -0.059075 0.024475 -0.015675 0.01565 -0.024475 0.0369 -0.024475 0.05905 0 0.02215 0.0088 0.0434 0.024475 0.059075 0.015675 0.01565 0.0369 0.024475 0.059075 0.024475Z"></path>
  <path fill="#afdad2" stroke="#ffffff" stroke-width="0.0625" d="M4.4237 10.286975c0.022625 0 0.044325 -0.008975 0.06035 -0.024975 0.016 -0.016 0.024975 -0.037725 0.024975 -0.06035s-0.008975 -0.044325 -0.024975 -0.060325c-0.016025 -0.016 -0.037725 -0.025 -0.06035 -0.025s-0.044325 0.009 -0.060325 0.025c-0.016 0.016 -0.025 0.0377 -0.025 0.060325s0.009 0.04435 0.025 0.06035 0.0377 0.024975 0.060325 0.024975Z"></path>
  <path fill="#afdad2" stroke="#ffffff" stroke-width="0.0625" d="M3.288525 10.24355c0.018025 0 0.0353 -0.007175 0.048025 -0.0199 0.01275 -0.01275 0.0199 -0.030025 0.0199 -0.04805 0 -0.018 -0.00715 -0.0353 -0.0199 -0.048025 -0.012725 -0.01275 -0.03 -0.0199 -0.048025 -0.0199s-0.0353 0.00715 -0.04805 0.0199c-0.012725 0.012725 -0.0199 0.030025 -0.0199 0.048025 0 0.018025 0.007175 0.0353 0.0199 0.04805 0.01275 0.012725 0.030025 0.0199 0.04805 0.0199Z"></path>
  <path fill="#afdad2" stroke="#ffffff" stroke-width="0.0625" d="M1.807205 11.139675c0.0234925 0 0.046025 -0.009325 0.062635 -0.02595 0.01661 -0.0166 0.0259425 -0.039125 0.0259425 -0.062625s-0.0093325 -0.046025 -0.0259425 -0.062625c-0.01661 -0.016625 -0.0391425 -0.02595 -0.062635 -0.02595 -0.02349 0 -0.0460225 0.009325 -0.0626325 0.02595 -0.0166125 0.0166 -0.025945 0.039125 -0.025945 0.062625s0.0093325 0.046025 0.025945 0.062625c0.01661 0.016625 0.0391425 0.02595 0.0626325 0.02595Z"></path>
  <path fill="#afdad2" stroke="#ffffff" stroke-width="0.0625" d="M3.519 10.27265c0.0225 0 0.044075 -0.00895 0.059975 -0.02485 0.0159 -0.0159 0.02485 -0.037475 0.02485 -0.059975 0 -0.022475 -0.00895 -0.04405 -0.02485 -0.05995 -0.0159 -0.0159 -0.037475 -0.02485 -0.059975 -0.02485 -0.022475 0 -0.04405 0.00895 -0.05995 0.02485 -0.0159 0.0159 -0.02485 0.037475 -0.02485 0.05995 0 0.0225 0.00895 0.044075 0.02485 0.059975 0.0159 0.0159 0.037475 0.02485 0.05995 0.02485Z"></path>
  <path fill="#afdad2" stroke="#ffffff" stroke-width="0.0625" d="M4.119475 10.355275c0.01865 0 0.036525 -0.0074 0.0497 -0.020575s0.020575 -0.03105 0.020575 -0.0497c0 -0.018625 -0.0074 -0.036525 -0.020575 -0.0497s-0.03105 -0.020575 -0.0497 -0.020575 -0.036525 0.0074 -0.0497 0.020575 -0.020575 0.031075 -0.020575 0.0497c0 0.01865 0.0074 0.036525 0.020575 0.0497s0.03105 0.020575 0.0497 0.020575Z"></path>
  <path fill="#afdad2" stroke="#ffffff" stroke-width="0.0625" d="M4.78295 10.507675c0.0168 0 0.032925 -0.006675 0.0448 -0.01855 0.011875 -0.011875 0.01855 -0.028 0.01855 -0.0448s-0.006675 -0.0329 -0.01855 -0.0448c-0.011875 -0.011875 -0.028 -0.01855 -0.0448 -0.01855s-0.0329 0.006675 -0.0448 0.01855c-0.011875 0.0119 -0.01855 0.028 -0.01855 0.0448s0.006675 0.032925 0.01855 0.0448c0.0119 0.011875 0.028 0.01855 0.0448 0.01855Z"></path>
  <path fill="#afdad2" stroke="#ffffff" stroke-width="0.0625" d="M2.412265 10.042175c0.0144775 0 0.0283675 -0.00575 0.038605 -0.015975 0.01024 -0.01025 0.0159925 -0.02415 0.0159925 -0.038625 0 -0.014475 -0.0057525 -0.02835 -0.0159925 -0.0386 -0.0102375 -0.01025 -0.0241275 -0.016 -0.038605 -0.016 -0.01448 0 -0.02837 0.00575 -0.0386075 0.016 -0.0102375 0.01025 -0.0159925 0.024125 -0.0159925 0.0386 0 0.014475 0.005755 0.028375 0.0159925 0.038625 0.0102375 0.010225 0.0241275 0.015975 0.0386075 0.015975Z"></path>
  <path fill="#afdad2" stroke="#ffffff" stroke-width="0.0625" d="M2.908675 9.89215c0.0212 0 0.041525 -0.0084 0.0565 -0.0234 0.015 -0.015 0.023425 -0.035325 0.023425 -0.056525 0 -0.0212 -0.008425 -0.041525 -0.023425 -0.056525 -0.014975 -0.014975 -0.0353 -0.0234 -0.0565 -0.0234 -0.0212 0 -0.04155 0.008425 -0.056525 0.0234 -0.015 0.015 -0.023425 0.035325 -0.023425 0.056525 0 0.0212 0.008425 0.041525 0.023425 0.056525 0.014975 0.015 0.035325 0.0234 0.056525 0.0234Z"></path>
  <path fill="#afdad2" stroke="#ffffff" stroke-width="0.0625" d="M4.76865 10.320975c0.027925 0 0.0547 -0.0111 0.07445 -0.03085 0.01975 -0.01975 0.03085 -0.046525 0.03085 -0.074475 0 -0.027925 -0.0111 -0.0547 -0.03085 -0.07445 -0.01975 -0.01975 -0.046525 -0.03085 -0.07445 -0.03085 -0.02795 0 -0.054725 0.0111 -0.074475 0.03085 -0.01975 0.01975 -0.03085 0.046525 -0.03085 0.07445 0 0.02795 0.0111 0.054725 0.03085 0.074475 0.01975 0.01975 0.046525 0.03085 0.074475 0.03085Z"></path>
  <path fill="#afdad2" stroke="#ffffff" stroke-width="0.0625" d="M2.788125 10.36395c0.026375 0 0.0517 -0.010475 0.07035 -0.02915 0.018675 -0.01865 0.02915 -0.043975 0.02915 -0.070375 0 -0.026375 -0.010475 -0.0517 -0.02915 -0.07035 -0.01865 -0.018675 -0.043975 -0.02915 -0.07035 -0.02915 -0.0264 0 -0.051725 0.010475 -0.070375 0.02915 -0.018675 0.01865 -0.02915 0.043975 -0.02915 0.07035 0 0.0264 0.010475 0.051725 0.02915 0.070375 0.01865 0.018675 0.043975 0.02915 0.070375 0.02915Z"></path>
  <path fill="#afdad2" stroke="#ffffff" stroke-width="0.0625" d="M3.15615 9.9908c0.02635 0 0.0516 -0.010475 0.0702 -0.0291 0.018625 -0.0186 0.0291 -0.04385 0.0291 -0.070175 0 -0.02635 -0.010475 -0.0516 -0.0291 -0.0702 -0.0186 -0.018625 -0.04385 -0.0291 -0.0702 -0.0291 -0.026325 0 -0.051575 0.010475 -0.0702 0.0291 -0.0186 0.0186 -0.029075 0.04385 -0.029075 0.0702 0 0.026325 0.010475 0.051575 0.029075 0.070175 0.018625 0.018625 0.043875 0.0291 0.0702 0.0291Z"></path>
  <path fill="#afdad2" stroke="#ffffff" stroke-width="0.0625" d="M4.017025 10.1117c0.027275 0 0.05345 -0.01085 0.072725 -0.030125 0.019275 -0.0193 0.030125 -0.04545 0.030125 -0.072725s-0.01085 -0.053425 -0.030125 -0.072725c-0.019275 -0.019275 -0.04545 -0.030125 -0.072725 -0.030125s-0.053425 0.01085 -0.072725 0.030125c-0.019275 0.0193 -0.030125 0.04545 -0.030125 0.072725s0.01085 0.053425 0.030125 0.072725c0.0193 0.019275 0.04545 0.030125 0.072725 0.030125Z"></path>
  <path fill="#afdad2" stroke="#ffffff" stroke-width="0.0625" d="M5.08175 10.75835c0.025825 0 0.050575 -0.010275 0.06885 -0.028525 0.01825 -0.018275 0.028525 -0.043025 0.028525 -0.06885 0 -0.025825 -0.010275 -0.0506 -0.028525 -0.06885 -0.018275 -0.018275 -0.043025 -0.028525 -0.06885 -0.028525 -0.025825 0 -0.0506 0.01025 -0.06885 0.028525 -0.018275 0.01825 -0.028525 0.043025 -0.028525 0.06885 0 0.025825 0.01025 0.050575 0.028525 0.06885 0.01825 0.01825 0.043025 0.028525 0.06885 0.028525Z"></path>
  <path fill="#afdad2" stroke="#ffffff" stroke-width="0.0625" d="M2.886275 9.579575c0.01475 0 0.0289 -0.005875 0.039325 -0.0163 0.010425 -0.010425 0.016275 -0.02455 0.016275 -0.0393 0 -0.01475 -0.00585 -0.028875 -0.016275 -0.0393s-0.024575 -0.0163 -0.039325 -0.0163c-0.014725 0 -0.028875 0.005875 -0.0393 0.0163 -0.010425 0.010425 -0.016275 0.02455 -0.016275 0.0393 0 0.01475 0.00585 0.028875 0.016275 0.0393s0.024575 0.0163 0.0393 0.0163Z"></path>
  <path fill="#afdad2" stroke="#ffffff" stroke-width="0.0625" d="M3.774025 10.16975c0.02475 0 0.0485 -0.00985 0.066 -0.02735s0.02735 -0.04125 0.02735 -0.066025c0 -0.02475 -0.00985 -0.0485 -0.02735 -0.066s-0.04125 -0.02735 -0.066 -0.02735c-0.024775 0 -0.048525 0.00985 -0.066025 0.02735s-0.027325 0.04125 -0.027325 0.066c0 0.024775 0.009825 0.048525 0.027325 0.066025 0.0175 0.0175 0.04125 0.02735 0.066025 0.02735Z"></path>
  <path fill="#afdad2" stroke="#ffffff" stroke-width="0.0625" d="M3.649075 9.9903c0.02 0 0.03915 -0.007925 0.0533 -0.022075 0.014125 -0.014125 0.022075 -0.0333 0.022075 -0.053275s-0.00795 -0.03915 -0.022075 -0.053275c-0.01415 -0.014125 -0.0333 -0.022075 -0.0533 -0.022075 -0.019975 0 -0.03915 0.00795 -0.053275 0.022075 -0.014125 0.014125 -0.022075 0.0333 -0.022075 0.053275s0.00795 0.03915 0.022075 0.053275c0.014125 0.01415 0.0333 0.022075 0.053275 0.022075Z"></path>
  <path fill="#afdad2" stroke="#ffffff" stroke-width="0.0625" d="M3.2704 9.8263c0.025625 0 0.050225 -0.010175 0.06835 -0.0283 0.01815 -0.01815 0.028325 -0.042725 0.028325 -0.068375 0 -0.02565 -0.010175 -0.05025 -0.028325 -0.068375 -0.018125 -0.018125 -0.042725 -0.028325 -0.06835 -0.028325 -0.02565 0 -0.05025 0.0102 -0.068375 0.028325 -0.018125 0.018125 -0.028325 0.042725 -0.028325 0.068375 0 0.02565 0.0102 0.050225 0.028325 0.068375 0.018125 0.018125 0.042725 0.0283 0.068375 0.0283Z"></path>
  <path fill="#afdad2" stroke="#ffffff" stroke-width="0.0625" d="M2.2038425 10.220675c0.028745 0 0.056315 -0.011425 0.07664 -0.03175 0.020325 -0.020325 0.031745 -0.0479 0.031745 -0.076625 0 -0.02875 -0.01142 -0.056325 -0.031745 -0.07665 -0.020325 -0.020325 -0.047895 -0.03175 -0.07664 -0.03175 -0.0287425 0 -0.0563125 0.011425 -0.0766375 0.03175 -0.020325 0.020325 -0.031745 0.0479 -0.031745 0.07665 0 0.028725 0.01142 0.0563 0.031745 0.076625 0.020325 0.020325 0.047895 0.03175 0.0766375 0.03175Z"></path>
  <path fill="#afdad2" stroke="#ffffff" stroke-width="0.0625" d="M1.5352175 10.0609c0.0156525 0 0.030665 -0.0062 0.0417325 -0.017275 0.0110675 -0.011075 0.0172875 -0.026075 0.0172875 -0.041725 0 -0.01565 -0.00622 -0.030675 -0.0172875 -0.04175 -0.0110675 -0.01105 -0.02608 -0.017275 -0.0417325 -0.017275s-0.0306675 0.006225 -0.041735 0.017275c-0.0110675 0.011075 -0.017285 0.0261 -0.017285 0.04175s0.0062175 0.03065 0.017285 0.041725c0.0110675 0.011075 0.0260825 0.017275 0.041735 0.017275Z"></path>
  <path fill="#afdad2" stroke="#ffffff" stroke-width="0.0625" d="M1.815775 10.021575c0.0202925 0 0.0397575 -0.008075 0.054105 -0.022425 0.01435 -0.01435 0.0224125 -0.0338 0.0224125 -0.0541 0 -0.0203 -0.0080625 -0.03975 -0.0224125 -0.0541 -0.0143475 -0.01435 -0.0338125 -0.022425 -0.054105 -0.022425 -0.0202925 0 -0.0397575 0.008075 -0.054105 0.022425 -0.01435 0.01435 -0.0224125 0.0338 -0.0224125 0.0541 0 0.0203 0.0080625 0.03975 0.0224125 0.0541 0.0143475 0.01435 0.0338125 0.022425 0.054105 0.022425Z"></path>
  <path fill="#afdad2" stroke="#ffffff" stroke-width="0.0625" d="M4.3868 10.4849c0.025 0 0.049 -0.00995 0.066675 -0.027625 0.0177 -0.0177 0.027625 -0.041675 0.027625 -0.0667 0 -0.025 -0.009925 -0.049 -0.027625 -0.066675 -0.017675 -0.0177 -0.041675 -0.027625 -0.066675 -0.027625 -0.025025 0 -0.049 0.009925 -0.0667 0.027625 -0.017675 0.017675 -0.027625 0.041675 -0.027625 0.066675 0 0.025025 0.00995 0.049 0.027625 0.0667 0.0177 0.017675 0.041675 0.027625 0.0667 0.027625Z"></path>
  <path fill="#afdad2" stroke="#ffffff" stroke-width="0.0625" d="M3.351925 9.9878c0.0139 0 0.027225 -0.005525 0.03705 -0.01535 0.0098 -0.0098 0.015325 -0.023125 0.015325 -0.037025 0 -0.013875 -0.005525 -0.0272 -0.015325 -0.037025 -0.009825 -0.009825 -0.02315 -0.01535 -0.03705 -0.01535 -0.013875 0 -0.0272 0.005525 -0.037025 0.01535 -0.009825 0.009825 -0.01535 0.02315 -0.01535 0.037025 0 0.0139 0.005525 0.027225 0.01535 0.037025 0.009825 0.009825 0.02315 0.01535 0.037025 0.01535Z"></path>
  <path fill="#afdad2" stroke="#ffffff" stroke-width="0.0625" d="M2.239835 9.998475c0.0263425 0 0.05161 -0.010475 0.0702375 -0.0291 0.0186275 -0.018625 0.029095 -0.0439 0.029095 -0.07025 0 -0.026325 -0.0104675 -0.0516 -0.029095 -0.070225 -0.0186275 -0.018625 -0.043895 -0.0291 -0.0702375 -0.0291 -0.0263425 0 -0.05161 0.010475 -0.0702375 0.0291 -0.0186275 0.018625 -0.029095 0.0439 -0.029095 0.070225 0 0.02635 0.0104675 0.051625 0.029095 0.07025 0.0186275 0.018625 0.043895 0.0291 0.0702375 0.0291Z"></path>
  <path fill="#afdad2" stroke="#ffffff" stroke-width="0.0625" d="M0.78229 11.216075c0.022905 0 0.044875 -0.0091 0.06107 -0.0253 0.0161975 -0.0162 0.0252975 -0.038175 0.0252975 -0.061075 0 -0.0229 -0.0091 -0.044875 -0.0252975 -0.061075 -0.016195 -0.0162 -0.038165 -0.0253 -0.06107 -0.0253 -0.022905 0 -0.044875 0.0091 -0.06107 0.0253 -0.0161975 0.0162 -0.0252975 0.038175 -0.0252975 0.061075 0 0.0229 0.0091 0.044875 0.0252975 0.061075 0.016195 0.0162 0.038165 0.0253 0.06107 0.0253Z"></path>
  <path fill="#afdad2" stroke="#ffffff" stroke-width="0.0625" d="M1.0122025 11.24585c0.02661 0 0.052135 -0.010575 0.07095 -0.0294 0.0188175 -0.0188 0.02939 -0.044325 0.02939 -0.07095 0 -0.0266 -0.0105725 -0.052125 -0.02939 -0.07095 -0.018815 -0.0188 -0.04434 -0.029375 -0.07095 -0.029375s-0.0521325 0.010575 -0.07095 0.029375c-0.018815 0.018825 -0.0293875 0.04435 -0.0293875 0.07095 0 0.026625 0.0105725 0.05215 0.0293875 0.07095 0.0188175 0.018825 0.04434 0.0294 0.07095 0.0294Z"></path>
  <path fill="#afdad2" stroke="#ffffff" stroke-width="0.0625" d="M1.82313 10.36135c0.02561 0 0.050175 -0.010175 0.068285 -0.028275 0.0181075 -0.018125 0.0282825 -0.042675 0.0282825 -0.0683 0 -0.0256 -0.010175 -0.050175 -0.0282825 -0.068275 -0.01811 -0.0181 -0.042675 -0.028275 -0.068285 -0.028275s-0.050175 0.010175 -0.0682825 0.028275c-0.01811 0.0181 -0.028285 0.042675 -0.028285 0.068275 0 0.025625 0.010175 0.050175 0.028285 0.0683 0.0181075 0.0181 0.0426725 0.028275 0.0682825 0.028275Z"></path>
  <path fill="#afdad2" stroke="#ffffff" stroke-width="0.0625" d="M0.810685 11.001125c0.01985 0 0.0388875 -0.007875 0.0529225 -0.021925 0.0140375 -0.014025 0.0219225 -0.033075 0.0219225 -0.052925s-0.007885 -0.038875 -0.0219225 -0.052925c-0.014035 -0.014025 -0.0330725 -0.0219 -0.0529225 -0.0219s-0.0388875 0.007875 -0.0529225 0.0219c-0.0140375 0.01405 -0.0219225 0.033075 -0.0219225 0.052925s0.007885 0.0389 0.0219225 0.052925c0.014035 0.01405 0.0330725 0.021925 0.0529225 0.021925Z"></path>
  <path fill="#afdad2" stroke="#ffffff" stroke-width="0.0625" d="M3.828475 9.914675c0.021725 0 0.042575 -0.00865 0.057925 -0.024 0.01535 -0.01535 0.024 -0.0362 0.024 -0.057925 0 -0.021725 -0.00865 -0.04255 -0.024 -0.0579 -0.01535 -0.015375 -0.0362 -0.024 -0.057925 -0.024 -0.0217 0 -0.04255 0.008625 -0.0579 0.024 -0.015375 0.01535 -0.024 0.036175 -0.024 0.0579s0.008625 0.042575 0.024 0.057925c0.01535 0.01535 0.0362 0.024 0.0579 0.024Z"></path>
  <path fill="#afdad2" stroke="#ffffff" stroke-width="0.0625" d="M1.548405 10.25855c0.0197675 0 0.038725 -0.00785 0.0527025 -0.021825 0.013975 -0.013975 0.0218275 -0.032925 0.0218275 -0.0527 0 -0.019775 -0.0078525 -0.038725 -0.0218275 -0.0527 -0.0139775 -0.013975 -0.032935 -0.021825 -0.0527025 -0.021825 -0.019765 0 -0.0387225 0.00785 -0.0527 0.021825 -0.013975 0.013975 -0.0218275 0.032925 -0.0218275 0.0527 0 0.019775 0.0078525 0.038725 0.0218275 0.0527 0.0139775 0.013975 0.032935 0.021825 0.0527 0.021825Z"></path>
  <path fill="#afdad2" stroke="#ffffff" stroke-width="0.0625" d="M1.1870525 11.156325c0.0277225 0 0.054315 -0.011 0.0739175 -0.0306 0.0196025 -0.0196 0.0306175 -0.0462 0.0306175 -0.073925 0 -0.027725 -0.011015 -0.054325 -0.0306175 -0.073925 -0.0196025 -0.0196 -0.046195 -0.0306 -0.0739175 -0.0306 -0.0277225 0 -0.0543125 0.011 -0.073915 0.0306 -0.0196025 0.0196 -0.0306175 0.0462 -0.0306175 0.073925 0 0.027725 0.011015 0.054325 0.0306175 0.073925 0.0196025 0.0196 0.0461925 0.0306 0.073915 0.0306Z"></path>
  <path fill="#afdad2" stroke="#ffffff" stroke-width="0.0625" d="M4.5852 10.444825c0.027175 0 0.053225 -0.0108 0.072425 -0.03 0.0192 -0.0192 0.03 -0.04525 0.03 -0.072425 0 -0.02715 -0.0108 -0.0532 -0.03 -0.072425 -0.0192 -0.0192 -0.04525 -0.029975 -0.072425 -0.029975 -0.02715 0 -0.0532 0.010775 -0.072425 0.029975 -0.0192 0.019225 -0.029975 0.045275 -0.029975 0.072425 0 0.027175 0.010775 0.053225 0.029975 0.072425 0.019225 0.0192 0.045275 0.03 0.072425 0.03Z"></path>
  <path fill="#afdad2" stroke="#ffffff" stroke-width="0.0625" d="M4.95435 10.43275c0.018675 0 0.0366 -0.007425 0.0498 -0.020625 0.013225 -0.013225 0.02065 -0.031125 0.02065 -0.049825 0 -0.018675 -0.007425 -0.0366 -0.02065 -0.0498 -0.0132 -0.0132 -0.031125 -0.020625 -0.0498 -0.020625 -0.018675 0 -0.0366 0.007425 -0.0498 0.020625 -0.013225 0.0132 -0.02065 0.031125 -0.02065 0.0498 0 0.0187 0.007425 0.0366 0.02065 0.049825 0.0132 0.0132 0.031125 0.020625 0.0498 0.020625Z"></path>
  <path fill="#afdad2" stroke="#ffffff" stroke-width="0.0625" d="M2.51925 10.258225c0.0208 0 0.040775 -0.00825 0.055475 -0.022975 0.014725 -0.0147 0.022975 -0.034675 0.022975 -0.055475s-0.00825 -0.040775 -0.022975 -0.055475c-0.0147 -0.014725 -0.034675 -0.022975 -0.055475 -0.022975 -0.0208025 0 -0.0407625 0.00825 -0.055475 0.022975 -0.0147125 0.0147 -0.02298 0.034675 -0.02298 0.055475s0.0082675 0.040775 0.02298 0.055475c0.0147125 0.014725 0.0346725 0.022975 0.055475 0.022975Z"></path>
  <path fill="#afdad2" stroke="#ffffff" stroke-width="0.0625" d="M4.241625 10.17025c0.017425 0 0.034125 -0.006925 0.04645 -0.01925 0.012325 -0.012325 0.01925 -0.02905 0.01925 -0.046475 0 -0.017425 -0.006925 -0.034125 -0.01925 -0.04645 -0.012325 -0.012325 -0.029025 -0.01925 -0.04645 -0.01925s-0.03415 0.006925 -0.046475 0.01925c-0.012325 0.012325 -0.01925 0.029025 -0.01925 0.04645s0.006925 0.03415 0.01925 0.046475c0.012325 0.012325 0.02905 0.01925 0.046475 0.01925Z"></path>
  <path fill="#afdad2" stroke="#ffffff" stroke-width="0.0625" d="M4.213375 10.005475c0.028425 0 0.055675 -0.011275 0.075775 -0.031375 0.0201 -0.0201 0.0314 -0.047375 0.0314 -0.0758 0 -0.0284 -0.0113 -0.055675 -0.0314 -0.075775 -0.0201 -0.0201 -0.04735 -0.031375 -0.075775 -0.031375 -0.028425 0 -0.055675 0.011275 -0.075775 0.031375 -0.0201 0.0201 -0.0314 0.047375 -0.0314 0.075775 0 0.028425 0.0113 0.0557 0.0314 0.0758 0.0201 0.0201 0.04735 0.031375 0.075775 0.031375Z"></path>
  <path fill="#afdad2" stroke="#ffffff" stroke-width="0.0625" d="M2.89195 10.1881c0.025425 0 0.0498 -0.0101 0.06775 -0.028075 0.017975 -0.017975 0.028075 -0.04235 0.028075 -0.06775 0 -0.0254 -0.0101 -0.049775 -0.028075 -0.06775 -0.01795 -0.017975 -0.042325 -0.028075 -0.06775 -0.028075 -0.0254 0 -0.049775 0.0101 -0.06775 0.028075 -0.01795 0.017975 -0.02805 0.04235 -0.02805 0.06775 0 0.0254 0.0101 0.049775 0.02805 0.06775 0.017975 0.017975 0.04235 0.028075 0.06775 0.028075Z"></path>
  <path fill="#afdad2" stroke="#ffffff" stroke-width="0.0625" d="M4.9168 10.65135c0.0218 0 0.0427 -0.008675 0.058125 -0.024075 0.0154 -0.015425 0.024075 -0.036325 0.024075 -0.058125s-0.008675 -0.042725 -0.024075 -0.058125c-0.015425 -0.015425 -0.036325 -0.024075 -0.058125 -0.024075s-0.042725 0.00865 -0.058125 0.024075c-0.015425 0.0154 -0.024075 0.036325 -0.024075 0.058125s0.00865 0.0427 0.024075 0.058125c0.0154 0.0154 0.036325 0.024075 0.058125 0.024075Z"></path>
  <path fill="#afdad2" stroke="#ffffff" stroke-width="0.0625" d="M0.992545 11.39355c0.012785 0 0.0250475 -0.0051 0.03409 -0.014125 0.00904 -0.00905 0.01412 -0.0213 0.01412 -0.0341 0 -0.012775 -0.00508 -0.02505 -0.01412 -0.034075 -0.0090425 -0.00905 -0.021305 -0.014125 -0.03409 -0.014125 -0.012785 0 -0.0250475 0.005075 -0.03409 0.014125 -0.00904 0.009025 -0.01412 0.0213 -0.01412 0.034075 0 0.0128 0.00508 0.02505 0.01412 0.0341 0.0090425 0.009025 0.021305 0.014125 0.03409 0.014125Z"></path>
  <path fill="#afdad2" stroke="#ffffff" stroke-width="0.0625" d="M2.0059025 10.056725c0.0238725 0 0.0467675 -0.009475 0.0636475 -0.02635 0.01688 -0.0169 0.0263625 -0.039775 0.0263625 -0.06365s-0.0094825 -0.046775 -0.0263625 -0.06365 -0.039775 -0.026375 -0.0636475 -0.026375c-0.02387 0 -0.0467675 0.0095 -0.063645 0.026375 -0.01688 0.016875 -0.026365 0.039775 -0.026365 0.06365s0.009485 0.04675 0.026365 0.06365c0.0168775 0.016875 0.039775 0.02635 0.063645 0.02635Z"></path>
  <path fill="#afdad2" stroke="#ffffff" stroke-width="0.0625" d="M2.6628 9.909825c0.01705 0 0.0334 -0.006775 0.045475 -0.018825 0.01205 -0.01205 0.018825 -0.0284 0.018825 -0.04545 0 -0.01705 -0.006775 -0.033425 -0.018825 -0.045475 -0.012075 -0.01205 -0.028425 -0.018825 -0.045475 -0.018825 -0.01705 0 -0.0334 0.006775 -0.04545 0.018825 -0.012075 0.01205 -0.01885 0.028425 -0.01885 0.045475 0 0.01705 0.006775 0.0334 0.01885 0.04545 0.01205 0.01205 0.0284 0.018825 0.04545 0.018825Z"></path>
  <path fill="#afdad2" stroke="#ffffff" stroke-width="0.0625" d="M4.528775 10.10795c0.02145 0 0.042025 -0.008525 0.0572 -0.023675 0.015175 -0.015175 0.0237 -0.03575 0.0237 -0.057225 0 -0.02145 -0.008525 -0.042025 -0.0237 -0.0572 -0.015175 -0.01515 -0.03575 -0.023675 -0.0572 -0.023675 -0.02145 0 -0.042025 0.008525 -0.0572 0.023675 -0.015175 0.015175 -0.0237 0.03575 -0.0237 0.0572 0 0.021475 0.008525 0.04205 0.0237 0.057225 0.015175 0.01515 0.03575 0.023675 0.0572 0.023675Z"></path>
  <path fill="#afdad2" stroke="#ffffff" stroke-width="0.0625" d="M2.4831625 9.780175c0.0266875 0 0.0522625 -0.0106 0.0711375 -0.029475 0.01885 -0.01885 0.02945 -0.04445 0.02945 -0.071125 0 -0.026675 -0.0106 -0.052275 -0.02945 -0.071125 -0.018875 -0.018875 -0.04445 -0.029475 -0.0711375 -0.029475 -0.0266775 0 -0.052265 0.0106 -0.07113 0.029475 -0.018865 0.01885 -0.029465 0.04445 -0.029465 0.071125 0 0.026675 0.0106 0.052275 0.029465 0.071125 0.018865 0.018875 0.0444525 0.029475 0.07113 0.029475Z"></path>
  <path fill="#afdad2" stroke="#ffffff" stroke-width="0.0625" d="M4.0614 9.8761c0.024675 0 0.048325 -0.0098 0.065775 -0.02725 0.01745 -0.017425 0.02725 -0.0411 0.02725 -0.065775 0 -0.02465 -0.0098 -0.048325 -0.02725 -0.065775 -0.01745 -0.017425 -0.0411 -0.027225 -0.065775 -0.027225 -0.024675 0 -0.048325 0.0098 -0.065775 0.027225 -0.01745 0.01745 -0.02725 0.041125 -0.02725 0.065775 0 0.024675 0.0098 0.04835 0.02725 0.065775 0.01745 0.01745 0.0411 0.02725 0.065775 0.02725Z"></path>
  <path fill="#afdad2" stroke="#ffffff" stroke-width="0.0625" d="M2.0297175 9.7771c0.0197625 0 0.03872 -0.007875 0.0526925 -0.02185 0.013975 -0.01395 0.0218275 -0.032925 0.0218275 -0.052675 0 -0.019775 -0.0078525 -0.038725 -0.0218275 -0.0527 -0.0139725 -0.013975 -0.03293 -0.021825 -0.0526925 -0.021825 -0.0197625 0 -0.0387175 0.00785 -0.0526925 0.021825 -0.0139725 0.013975 -0.021825 0.032925 -0.021825 0.0527 0 0.01975 0.0078525 0.038725 0.021825 0.052675 0.013975 0.013975 0.03293 0.02185 0.0526925 0.02185Z"></path>
  <path fill="#afdad2" stroke="#ffffff" stroke-width="0.0625" d="M2.2087975 9.71935c0.0218025 0 0.0427175 -0.00865 0.0581325 -0.024075 0.0154175 -0.015425 0.02408 -0.036325 0.02408 -0.058125s-0.0086625 -0.042725 -0.02408 -0.05815c-0.015415 -0.0154 -0.03633 -0.024075 -0.0581325 -0.024075 -0.0218025 0 -0.042715 0.008675 -0.0581325 0.024075 -0.015415 0.015425 -0.0240775 0.03635 -0.0240775 0.05815s0.0086625 0.0427 0.0240775 0.058125c0.0154175 0.015425 0.03633 0.024075 0.0581325 0.024075Z"></path>
  <path fill="#afdad2" stroke="#ffffff" stroke-width="0.0625" d="M3.47585 9.61625c0.025575 0 0.0501 -0.010175 0.0682 -0.02825 0.018075 -0.0181 0.02825 -0.042625 0.02825 -0.0682 0 -0.0256 -0.010175 -0.050125 -0.02825 -0.0682 -0.0181 -0.0181 -0.042625 -0.02825 -0.0682 -0.02825 -0.025575 0 -0.050125 0.01015 -0.0682 0.02825 -0.0181 0.018075 -0.02825 0.0426 -0.02825 0.0682 0 0.025575 0.01015 0.0501 0.02825 0.0682 0.018075 0.018075 0.042625 0.02825 0.0682 0.02825Z"></path>
  <path fill="#afdad2" stroke="#ffffff" stroke-width="0.0625" d="M3.08825 9.636825c0.0199 0 0.039 -0.0079 0.053075 -0.021975 0.014075 -0.014075 0.022 -0.033175 0.022 -0.053075 0 -0.019925 -0.007925 -0.039025 -0.022 -0.0531 -0.014075 -0.014075 -0.033175 -0.021975 -0.053075 -0.021975 -0.0199 0 -0.039 0.0079 -0.053075 0.021975 -0.014075 0.014075 -0.022 0.033175 -0.022 0.0531 0 0.0199 0.007925 0.039 0.022 0.053075 0.014075 0.014075 0.033175 0.021975 0.053075 0.021975Z"></path>
  <path fill="#afdad2" stroke="#ffffff" stroke-width="0.0625" d="M3.668475 9.72845c0.015225 0 0.029825 -0.00605 0.0406 -0.0168 0.010775 -0.010775 0.016825 -0.025375 0.016825 -0.0406 0 -0.015225 -0.00605 -0.029825 -0.016825 -0.0406 -0.010775 -0.01075 -0.025375 -0.0168 -0.0406 -0.0168 -0.0152 0 -0.029825 0.00605 -0.040575 0.0168 -0.010775 0.010775 -0.016825 0.025375 -0.016825 0.0406 0 0.015225 0.00605 0.029825 0.016825 0.0406 0.01075 0.01075 0.025375 0.0168 0.040575 0.0168Z"></path>
  <path fill="#afdad2" stroke="#ffffff" stroke-width="0.0625" d="M3.4768 9.81665c0.028225 0 0.055325 -0.011225 0.075275 -0.031175 0.01995 -0.019975 0.031175 -0.04705 0.031175 -0.075275 0 -0.028225 -0.011225 -0.0553 -0.031175 -0.075275 -0.01995 -0.01995 -0.04705 -0.031175 -0.075275 -0.031175 -0.028225 0 -0.0553 0.011225 -0.07525 0.031175 -0.019975 0.019975 -0.0312 0.04705 -0.0312 0.075275 0 0.028225 0.011225 0.0553 0.0312 0.075275 0.01995 0.01995 0.047025 0.031175 0.07525 0.031175Z"></path>
  <path fill="#afdad2" stroke="#ffffff" stroke-width="0.0625" d="M3.89925 9.713275c0.0195 0 0.0382 -0.00775 0.052 -0.02155 0.0138 -0.013775 0.02155 -0.0325 0.02155 -0.052 0 -0.0195 -0.00775 -0.038225 -0.02155 -0.052025 -0.0138 -0.013775 -0.0325 -0.02155 -0.052 -0.02155 -0.019525 0 -0.038225 0.007775 -0.052025 0.02155 -0.0138 0.0138 -0.02155 0.032525 -0.02155 0.052025 0 0.0195 0.00775 0.038225 0.02155 0.052 0.0138 0.0138 0.0325 0.02155 0.052025 0.02155Z"></path>
  <path fill="#afdad2" stroke="#ffffff" stroke-width="0.0625" d="M0.598505 11.507675c0.024505 0 0.04801 -0.009725 0.06534 -0.02705 0.0173275 -0.017325 0.0270625 -0.04085 0.0270625 -0.06535 0 -0.0245 -0.009735 -0.048 -0.0270625 -0.065325 -0.01733 -0.01735 -0.040835 -0.027075 -0.06534 -0.027075 -0.024505 0 -0.04801 0.009725 -0.0653375 0.027075 -0.0173275 0.017325 -0.027065 0.040825 -0.027065 0.065325 0 0.0245 0.0097375 0.048025 0.027065 0.06535 0.0173275 0.017325 0.0408325 0.02705 0.0653375 0.02705Z"></path>
  <path fill="#afdad2" stroke="#ffffff" stroke-width="0.0625" d="M2.695 9.7068c0.0132 0 0.02585 -0.00525 0.0352 -0.014575 0.009325 -0.009325 0.01455 -0.021975 0.01455 -0.035175 0 -0.0132 -0.005225 -0.02585 -0.01455 -0.035175 -0.00935 -0.009325 -0.022 -0.014575 -0.0352 -0.014575 -0.013175 0 -0.025825 0.00525 -0.035175 0.014575 -0.009325 0.009325 -0.01455 0.021975 -0.01455 0.035175 0 0.0132 0.005225 0.02585 0.01455 0.035175 0.00935 0.009325 0.022 0.014575 0.035175 0.014575Z"></path>
  <path fill="#afdad2" stroke="#ffffff" stroke-width="0.0625" d="M4.404025 9.934525c0.015925 0 0.0312 -0.006325 0.04245 -0.017575 0.011275 -0.011275 0.0176 -0.02655 0.0176 -0.04245 0 -0.015925 -0.006325 -0.0312 -0.0176 -0.042475 -0.01125 -0.01125 -0.026525 -0.017575 -0.04245 -0.017575s-0.0312 0.006325 -0.04245 0.017575c-0.01125 0.011275 -0.017575 0.02655 -0.017575 0.042475 0 0.0159 0.006325 0.031175 0.017575 0.04245 0.01125 0.01125 0.026525 0.017575 0.04245 0.017575Z"></path>
  <path fill="#afdad2" stroke="#ffffff" stroke-width="0.0625" d="M3.282025 9.634225c0.023025 0 0.0451 -0.00915 0.0614 -0.025425 0.016275 -0.016275 0.025425 -0.038375 0.025425 -0.0614 0 -0.023025 -0.00915 -0.045125 -0.025425 -0.0614 -0.0163 -0.016275 -0.038375 -0.025425 -0.0614 -0.025425 -0.023025 0 -0.045125 0.00915 -0.0614 0.025425 -0.016275 0.016275 -0.025425 0.038375 -0.025425 0.0614 0 0.023025 0.00915 0.045125 0.025425 0.0614 0.016275 0.016275 0.038375 0.025425 0.0614 0.025425Z"></path>
  <path fill="#afdad2" stroke="#ffffff" stroke-width="0.0625" d="M1.29925 10.952875c0.0265275 0 0.0519725 -0.01055 0.07073 -0.0293 0.01876 -0.018775 0.0292975 -0.0442 0.0292975 -0.070725 0 -0.02655 -0.0105375 -0.051975 -0.0292975 -0.07075 -0.0187575 -0.01875 -0.0442025 -0.0293 -0.07073 -0.0293 -0.02653 0 -0.051975 0.01055 -0.0707325 0.0293 -0.01876 0.018775 -0.0292975 0.0442 -0.0292975 0.07075 0 0.026525 0.0105375 0.05195 0.0292975 0.070725 0.0187575 0.01875 0.0442025 0.0293 0.0707325 0.0293Z"></path>
  <path fill="#ffffff" d="m4.065675 10.480375 -0.103225 -0.002475 -0.103275 0.002375 -0.10325 0.007175 -0.103175 0.0119 -0.1031 0.01645 -0.102975 0.020825 -0.102825 0.02495 -0.102675 0.028775 -0.102525 0.03225 -0.102325 0.03535 -0.10215 0.038125 -0.102 0.04045 -0.101825 0.042375 -0.101675 0.043875 -0.101525 0.044975 -0.1013675 0.0457 -0.20236 0.091925 -0.100995 0.045525 -0.1008875 0.044825 -0.10078 0.043825 -0.1006875 0.042575 -0.1005975 0.0411 -0.10052 0.039425 -0.1004525 0.037625 -0.1003925 0.035675 -0.100345 0.033675 -0.100305 0.0316 -0.1002775 0.0295 -0.1002625 0.0274 -0.100255 0.025325 -0.10026 0.0233 -0.1002725 0.021325 -0.1002925 0.0194 -0.1003225 0.0176 -0.11005 0.017375 -0.00485 0.033475c-0.0184275 0.12715 -0.0276925 0.255525 -0.0276925 0.38415 0 0.1002 0.0056225 0.200275 0.016825 0.29975l0.0070075 0.0622 0.145315 -0.0645 0.1013575 -0.0457 0.20235 -0.091925 0.1009875 -0.0455 0.1008525 -0.0447 0.10071 -0.043475 0.1005625 -0.04185 0.1004025 -0.039825 0.10024 -0.037375 0.1000675 -0.0346 0.0998975 -0.03145 0.099725 -0.027925 0.0995575 -0.02415 0.0993975 -0.020125 0.099255 -0.01585 0.0991325 -0.011425 0.099045 -0.006875 0.098985 -0.002275 0.0989675 0.002375 0.098985 0.006975 0.09905 0.0115 0.099125 0.015925 0.09925 0.02015 0.0994 0.024175 0.09955 0.02795 0.099725 0.031425 0.0999 0.034575 0.100075 0.03735 0.10025 0.039775 0.1004 0.0418 0.10055 0.0434 0.100725 0.044625 0.10085 0.04545 0.2021 0.091825 0.101225 0.04565 0.10135 0.045025 0.10145 0.044125 0.10155 0.042925 0.101625 0.041525 0.1017 0.0399 0.1018 0.038125 0.101825 0.036225 0.1019 0.0342 0.101925 0.032125 0.10195 0.030025 0.10195 0.027875 0.101975 0.025775 0.101975 0.023725 0.1434 0.030525 0.011925 -0.04095c0.067575 -0.232175 0.103425 -0.4725 0.1065 -0.714475l0.0002 -0.033725 -0.0002 -0.034025 -0.0007 -0.036425c-0.00865 -0.328175 -0.077425 -0.651725 -0.202975 -0.954825l-0.00925 -0.0221 -0.01655 -0.03825 -0.10425 -0.0469 -0.10135 -0.0449 -0.1015 -0.043825 -0.101675 -0.042325 -0.101825 -0.0404 -0.102 -0.038075 -0.10215 -0.035325 -0.10235 -0.03225 -0.1025 -0.028775 -0.102675 -0.02495 -0.102825 -0.020875 -0.102975 -0.01655 -0.1031 -0.01195 -0.1032 -0.007275Zm-0.1043 0.043425 0.1011 0.00235 0.101125 0.007075 0.101125 0.0117 0.1011 0.0162 0.101125 0.0205 0.1011 0.02455 0.101125 0.02835 0.101125 0.03185 0.1011 0.034975 0.101125 0.037725 0.1011 0.0401 0.101125 0.0421 0.101125 0.04365 0.1011 0.0448 0.088075 0.0396c0.00625 0.014375 0.0124 0.028825 0.0184 0.043325 0.12345 0.29805 0.191 0.616075 0.199475 0.938175l0.0007 0.0358 0.0002 0.03345 -0.0002 0.03345c-0.003025 0.2381 -0.03835 0.474325 -0.104675 0.702225l-0.10085 -0.021475 -0.101125 -0.0235 -0.1011 -0.02555 -0.101125 -0.02765 -0.101125 -0.02975 -0.1011 -0.03185 -0.101125 -0.03395 -0.1011 -0.03595 -0.101125 -0.037875 -0.101125 -0.039675 -0.1011 -0.0413 -0.101125 -0.04275 -0.1011 -0.043975 -0.101125 -0.044925 -0.101125 -0.0456 -0.202225 -0.091875 -0.101125 -0.04555 -0.1011 -0.0448 -0.101125 -0.04365 -0.1011 -0.0421 -0.101125 -0.0401 -0.101125 -0.037725 -0.1011 -0.034975 -0.101125 -0.03185 -0.1011 -0.02835 -0.101125 -0.02455 -0.101125 -0.0205 -0.1011 -0.0162 -0.101125 -0.0117 -0.1011125 -0.007075 -0.101115 -0.00235 -0.101115 0.00235 -0.101115 0.007075 -0.101115 0.0117 -0.101115 0.0162 -0.101115 0.0205 -0.101115 0.02455 -0.101115 0.02835 -0.101115 0.03185 -0.101115 0.034975 -0.1011175 0.037725 -0.101115 0.0401 -0.101115 0.0421 -0.101115 0.04365 -0.101115 0.0448 -0.101115 0.04555 -0.20223 0.091875 -0.101115 0.0456 -0.08809 0.0391c-0.010995 -0.097625 -0.0165375 -0.195975 -0.0165375 -0.2946 0 -0.126625 0.0091375 -0.2528 0.0272175 -0.37755l0.07741 -0.01225 0.101115 -0.017725 0.101115 -0.0196 0.101115 -0.0215 0.101115 -0.0235 0.101115 -0.02555 0.101115 -0.02765 0.101115 -0.02975 0.101115 -0.03185 0.1011175 -0.03395 0.101115 -0.03595 0.101115 -0.037875 0.101115 -0.039675 0.101115 -0.0413 0.101115 -0.04275 0.101115 -0.043975 0.101115 -0.044925 0.101115 -0.0456 0.20223 -0.091875 0.1011125 -0.04555 0.101125 -0.0448 0.1011 -0.04365 0.101125 -0.0421 0.101125 -0.0401 0.1011 -0.037725 0.101125 -0.034975 0.1011 -0.03185 0.101125 -0.02835 0.101125 -0.02455 0.1011 -0.0205 0.101125 -0.0162 0.1011 -0.0117 0.101125 -0.007075 0.101125 -0.00235Z" stroke-width="0.25"></path>
  <path fill="#7db0bc" stroke="#ffffff" d="m3.961375 10.50085 0.102175 0.0024 0.102175 0.00715 0.102125 0.011825 0.102075 0.016325 0.102 0.020675 0.10195 0.024775 0.10185 0.02855 0.10175 0.03205 0.1017 0.03515 0.1018 0.038 0.101475 0.040275 0.1014 0.0422 0.101325 0.043725 0.101225 0.04485 0.096125 0.04325c0.00755 0.0172 0.014925 0.034475 0.022125 0.05185 0.124525 0.300625 0.192675 0.621425 0.201225 0.9465l0.0007 0.0361 0.0002 0.03375 -0.0002 0.033575c-0.00315 0.247325 -0.040825 0.4926 -0.111625 0.7288l-0.12205 -0.025975 -0.10155 -0.0236 -0.101525 -0.02565 -0.10155 -0.027775 -0.10155 -0.0299 -0.1015 -0.031975 -0.1015 -0.034075 -0.101475 -0.0361 -0.10145 -0.038 -0.101425 -0.039775 -0.101375 -0.041425 -0.101325 -0.04285 -0.101275 -0.044025 -0.101225 -0.044975 -0.101175 -0.045625 -0.202175 -0.09185 -0.100975 -0.0455 -0.100925 -0.044725 -0.100825 -0.043525 -0.100775 -0.04195 -0.100675 -0.039925 -0.10085 -0.03765 -0.10055 -0.034775 -0.100475 -0.031625 -0.100375 -0.02815 -0.1003 -0.02435 -0.1002 -0.020325 -0.100175 -0.016025 -0.1001 -0.0116 -0.1000575 -0.007 -0.100045 -0.002325 -0.100045 0.002325 -0.1000625 0.007 -0.1001025 0.0116 -0.100155 0.016025 -0.10022 0.020325 -0.1002975 0.02435 -0.1003775 0.02815 -0.1004625 0.031625 -0.10055 0.034775 -0.1004175 0.037475 -0.1007575 0.039975 -0.10084 0.04195 -0.1009125 0.043575 -0.100985 0.044725 -0.10105 0.04555 -0.20229 0.0919 -0.1012375 0.04565 -0.116525 0.051725c-0.0135325 -0.10865 -0.02036 -0.21825 -0.02036 -0.3282 0 -0.1334 0.01005 -0.2663 0.029935 -0.3976l0.0936725 -0.0148 0.10072 -0.017675 0.1007025 -0.0195 0.100695 -0.0214 0.1006875 -0.0234 0.100685 -0.025425 0.1006875 -0.027525 0.1006975 -0.02965 0.10071 -0.031725 0.10073 -0.0338 0.100755 -0.035825 0.1007825 -0.03775 0.1008175 -0.03955 0.1008575 -0.0412 0.1009 -0.04265 0.10095 -0.0439 0.101 -0.044875 0.101055 -0.045575 0.202295 -0.0919 0.10124 -0.045625 0.101325 -0.0449 0.1014 -0.04375 0.101475 -0.042225 0.10155 -0.040275 0.101375 -0.03785 0.101675 -0.03515 0.101775 -0.03205 0.10185 -0.02855 0.101925 -0.024775 0.102 -0.020675 0.102075 -0.016325 0.10215 -0.011825 0.10215 -0.00715 0.1022 -0.0024Z" stroke-width="0.25"></path>
  <path fill="#5c7da2" d="m2.343475 11.737175 0.101115 0.002375 0.10111 0.007075 0.101125 0.0117 0.1011 0.0162 0.101125 0.020475 0.101125 0.024575 0.1011 0.02835 0.101125 0.031825 0.1011 0.034975 0.101125 0.03775 0.101125 0.0401 0.1011 0.042075 0.101125 0.04365 0.101125 0.0448 0.1011 0.045575 0.202225 0.091875 0.101125 0.0456 0.101125 0.044925 0.1011 0.043975 0.101125 0.04275 0.1011 0.0413 0.101125 0.039675 0.101125 0.037875 0.1011 0.03595 0.101125 0.033925 0.1011 0.031875 0.101125 0.02975 0.101125 0.02765 0.1011 0.02555 0.101125 0.0235 0.08655 0.0184c-0.023625 0.0758 -0.0507 0.15065 -0.0812 0.22425 -0.1323 0.319375 -0.3262 0.6096 -0.57065 0.85405 -0.24445 0.24445 -0.534675 0.43835 -0.85405 0.57065 -0.319375 0.1323 -0.661725 0.2004 -1.007425 0.2004s-0.6880275 -0.0681 -1.00741 -0.2004c-0.3193825 -0.1323 -0.6096025 -0.3262 -0.8540475 -0.57065 -0.244445 -0.24445 -0.4383625 -0.534675 -0.570655 -0.85405 -0.08836 -0.213325 -0.14808 -0.436875 -0.178 -0.664825l0.0822375 -0.036525 0.101115 -0.0456 0.2022325 -0.091875 0.101115 -0.045575 0.101115 -0.0448 0.101115 -0.04365 0.101115 -0.042075 0.101115 -0.0401 0.101115 -0.03775 0.101115 -0.034975 0.101115 -0.031825 0.101115 -0.02835 0.1011175 -0.024575 0.101115 -0.020475 0.101115 -0.0162 0.101115 -0.0117 0.101115 -0.007075 0.101115 -0.002375Z" stroke-width="0.25"></path>
  <path fill="#444876" d="M2.5459 12.4187v0.339075h0.6067v0.468275h0.6067v0.3203h0.606675v0.1352h0.6067l0.00005 0.1181c-0.019575 0.0209 -0.0395 0.041475 -0.059775 0.06175 -0.24445 0.24445 -0.534675 0.438375 -0.85405 0.570675 -0.319375 0.132275 -0.661725 0.200375 -1.007425 0.200375 -0.345675 0 -0.6880225 -0.0681 -1.007405 -0.200375 -0.3193825 -0.1323 -0.6096025 -0.326225 -0.8540475 -0.570675 -0.185415 -0.1854 -0.34176 -0.39715 -0.4641925 -0.628l0.000005 -0.31595h0.6066925v-0.42255h0.6066925v-0.0762h0.60668Z" stroke-width="0.25"></path>
  <path fill="#ffffff" d="m2.5664 12.39795 0 0.33905 0.6067 0.000025 -0.000025 0.468225 0.6067 0.00005 0 0.320275 0.6067 0.000025 0 0.13515 0.6067 0.00005 0 0.1165c-0.01365 0.014875 -0.02745 0.029625 -0.041425 0.044225l-0.00005 -0.119325 -0.565225 -0.00005 0.000025 0.5665c-0.013725 0.0081 -0.02755 0.01605 -0.04145 0.0239L4.345 13.567l-0.565225 -0.000025 0.000025 0.962625c-0.013775 0.003975 -0.0276 0.007825 -0.04145 0.011575l-0.000025 -1.29445 -0.56525 -0.000025 0.000025 1.3829c-0.0138 0.000625 -0.027625 0.001175 -0.04145 0.001575l-0.000025 -1.852725 -0.565225 -0.00005 0 1.808975c-0.01385 -0.0026 -0.02765 -0.0053 -0.04145 -0.0081l0 -2.139925H1.959685l-0.0000275 1.956075c-0.0138625 -0.006325 -0.0276675 -0.01275 -0.04141 -0.0193l0.00001 -1.8606H1.3529975l-0.00003 1.495825c-0.0139325 -0.011775 -0.02775 -0.023675 -0.041445 -0.03575l0.000045 -1.0375H0.7463075l-0.000025 0.333475c-0.0142475 -0.025825 -0.028065 -0.051875 -0.0414475 -0.0782l0.00006 -0.296675 0.6066825 -0.000025 0.00001 -0.422525 0.6066775 -0.00005 0.000015 -0.07615h0.64812Z" stroke-width="0.25"></path>
  <path fill="#444876" d="M3.051375 9.1986c0.367875 0 0.732175 0.072475 1.07205 0.21325 0.339875 0.140775 0.6487 0.34715 0.908825 0.607275 0.26015 0.260125 0.4665 0.56895 0.607275 0.908825 0.13625 0.3289 0.2085 0.6807 0.213025 1.03645l0.000225 0.0356 -0.000225 0.035575c-0.004525 0.355775 -0.076775 0.70755 -0.213025 1.03645 -0.140775 0.339875 -0.347125 0.648725 -0.607275 0.90885 -0.260125 0.260125 -0.56895 0.466475 -0.908825 0.60725 -0.339875 0.1408 -0.704175 0.21325 -1.07205 0.21325 -0.367875 0 -0.7321625 -0.07245 -1.072035 -0.21325 -0.33987 -0.140775 -0.6487075 -0.347125 -0.9088325 -0.60725 -0.2601275 -0.260125 -0.466485 -0.568975 -0.607265 -0.90885C0.3224625 12.732175 0.25 12.367875 0.25 12c0 -0.367875 0.0724625 -0.732175 0.2132425 -1.07205 0.14078 -0.339875 0.3471375 -0.6487 0.607265 -0.908825 0.260125 -0.260125 0.5689625 -0.4665 0.9088325 -0.607275 0.3398725 -0.140775 0.70416 -0.21325 1.072035 -0.21325Zm0 0.092c-0.355775 0 -0.7081225 0.070075 -1.0368325 0.206225 -0.3287125 0.136175 -0.6274075 0.33575 -0.8789925 0.587325 -0.251585 0.2516 -0.451165 0.5503 -0.5873225 0.879S0.3419875 11.6442 0.3419875 12c0 0.355775 0.0700825 0.708125 0.20624 1.036825 0.1361575 0.328725 0.3357375 0.627425 0.5873225 0.879 0.251585 0.251575 0.55028 0.451175 0.8789925 0.587325 0.32871 0.13615 0.6810575 0.20625 1.0368325 0.20625 0.3558 0 0.70815 -0.0701 1.03685 -0.20625 0.3287 -0.13615 0.6274 -0.33575 0.879 -0.587325 0.251575 -0.251575 0.45115 -0.550275 0.587325 -0.879 0.13175 -0.3181 0.20165 -0.658325 0.206 -1.002425L5.760775 12l-0.000225 -0.034425c-0.00435 -0.344075 -0.07425 -0.684325 -0.206 -1.002425 -0.136175 -0.3287 -0.33575 -0.6274 -0.587325 -0.879 -0.2516 -0.251575 -0.5503 -0.45115 -0.879 -0.587325 -0.3287 -0.13615 -0.68105 -0.206225 -1.03685 -0.206225Z" stroke-width="0.25"></path>
  <path fill="#444876" d="M7.32165 11.67175c0.162625 0 0.313325 0.0316 0.4521 0.094775 0.1393 0.06265 0.247275 0.170375 0.323925 0.32315l-0.293625 0.193425c-0.049725 -0.095825 -0.116 -0.17195 -0.19885 -0.2284 -0.082875 -0.056425 -0.18385 -0.08465 -0.30295 -0.08465 -0.05645 0 -0.113675 0.006725 -0.171675 0.020175 -0.058 0.01295 -0.1103 0.033675 -0.156925 0.06215 -0.046075 0.027975 -0.083375 0.06345 -0.11185 0.106425 -0.027975 0.042975 -0.04195 0.096075 -0.04195 0.15925 0 0.109275 0.03805 0.18875 0.1142 0.238475 0.076125 0.0497 0.190575 0.09295 0.343325 0.129725l0.332475 0.079225c0.1626 0.03625 0.297775 0.11005 0.4055 0.2214 0.1077 0.110825 0.161575 0.249075 0.161575 0.4148 0 0.12585 -0.02565 0.234325 -0.076925 0.325475 -0.05125 0.09115 -0.11935 0.165725 -0.204275 0.223725 -0.084425 0.058 -0.181275 0.1002 -0.290525 0.126625 -0.109275 0.026925 -0.22035 0.040375 -0.33325 0.040375 -0.178675 0 -0.34515 -0.033925 -0.499475 -0.10175 -0.154325 -0.06835 -0.286125 -0.1854 -0.3954 -0.351125l0.283525 -0.1934c0.0663 0.10615 0.149925 0.190825 0.2509 0.254 0.101 0.06265 0.22115 0.094 0.36045 0.094 0.066275 0 0.132575 -0.007525 0.19885 -0.022525 0.0663 -0.015025 0.125075 -0.038075 0.17635 -0.06915 0.051775 -0.031575 0.0932 -0.072225 0.124275 -0.12195 0.0316 -0.049725 0.047375 -0.107725 0.047375 -0.174 0 -0.116 -0.043225 -0.19965 -0.129725 -0.2509 -0.08595 -0.0518 -0.19005 -0.09245 -0.31225 -0.121975l-0.3185 -0.074575c-0.039875 -0.01035 -0.093725 -0.026925 -0.161575 -0.0497 -0.06785 -0.0233 -0.134125 -0.058 -0.19885 -0.1041 -0.06475 -0.0466 -0.1204 -0.1072 -0.167025 -0.181775 -0.046075 -0.07455 -0.069125 -0.16675 -0.069125 -0.276525 0 -0.119125 0.024075 -0.223475 0.07225 -0.31305 0.04815 -0.0896 0.112625 -0.16235 0.1934 -0.218275 0.081325 -0.05645 0.173225 -0.09865 0.275775 -0.126625 0.10305 -0.028475 0.209225 -0.042725 0.318475 -0.042725Zm2.4216 0c0.17555 0 0.332725 0.0316 0.4715 0.094775 0.139325 0.06265 0.2561 0.1463 0.35035 0.2509 0.094775 0.1041 0.167 0.226575 0.216725 0.367425 0.049725 0.14085 0.074575 0.29105 0.074575 0.45055v0.149125H8.9175c0.00985 0.116025 0.038075 0.225275 0.084675 0.327825 0.046625 0.102525 0.107975 0.191075 0.1841 0.26565 0.076125 0.074575 0.1639 0.133625 0.26335 0.177125 0.099425 0.042975 0.207125 0.064475 0.32315 0.064475 0.17555 0 0.327025 -0.04065 0.454425 -0.121975 0.1279 -0.0813 0.225 -0.175025 0.2913 -0.2812l0.253225 0.208975c-0.1388 0.17555 -0.292075 0.30165 -0.459875 0.3783 -0.16725 0.076125 -0.34695 0.114175 -0.539075 0.114175 -0.17245 0 -0.332475 -0.03055 -0.480075 -0.09165 -0.147075 -0.061625 -0.273675 -0.147075 -0.37985 -0.25635 -0.10615 -0.109275 -0.19005 -0.238475 -0.251675 -0.387625 -0.061125 -0.14915 -0.091675 -0.31175 -0.091675 -0.487825 0 -0.17555 0.029775 -0.3379 0.08935 -0.48705 0.06005 -0.14915 0.142925 -0.27835 0.248575 -0.387625 0.10615 -0.109275 0.230425 -0.19445 0.37285 -0.25555 0.142925 -0.061625 0.29725 -0.09245 0.462975 -0.09245Zm2.679475 0c0.112375 0 0.220875 0.016575 0.325475 0.049725 0.104625 0.033125 0.194975 0.083625 0.2711 0.151475 0.076125 0.067825 0.13725 0.153275 0.183325 0.256325 0.046625 0.10255 0.069925 0.225025 0.069925 0.367425v1.03935c0 0.0896 0.004125 0.183325 0.012425 0.2812 0.008275 0.097375 0.01735 0.17765 0.027175 0.240825h-0.3177c-0.00985 -0.05645 -0.01735 -0.117825 -0.022525 -0.1841 -0.005175 -0.0663 -0.007775 -0.130775 -0.007775 -0.193425h-0.009325c-0.096325 0.15535 -0.209975 0.267225 -0.341 0.335575 -0.131025 0.067825 -0.290775 0.10175 -0.4793 0.10175 -0.10305 0 -0.202725 -0.014225 -0.29905 -0.042725 -0.0958 -0.02795 -0.181 -0.07095 -0.255575 -0.12895 -0.074575 -0.058 -0.134375 -0.1292 -0.179425 -0.2136 -0.04455 -0.084425 -0.066825 -0.183075 -0.066825 -0.295975 0 -0.189025 0.04895 -0.337375 0.146825 -0.4451 0.097875 -0.107725 0.22035 -0.187975 0.367425 -0.2408 0.1476 -0.05335 0.305025 -0.0865 0.4723 -0.099425 0.167775 -0.013475 0.321325 -0.0202 0.460625 -0.0202h0.1639v-0.059825c0 -0.400825 -0.19885 -0.601225 -0.596575 -0.601225 -0.271875 0 -0.5088 0.091125 -0.710775 0.273425l-0.19885 -0.233825c0.21855 -0.225275 0.5466 -0.3379 0.9842 -0.3379Zm1.938575 -1.371825v1.81925h0.0101c0.052825 -0.07975 0.11575 -0.147575 0.18875 -0.2035 0.073025 -0.05645 0.14915 -0.1028 0.2284 -0.13905 0.07975 -0.036775 0.161825 -0.06345 0.246225 -0.080025 0.08495 -0.016575 0.165475 -0.02485 0.2416 -0.02485 0.182275 0 0.348775 0.030825 0.499475 0.09245 0.1507 0.0611 0.280675 0.146275 0.38995 0.25555 0.109775 0.109275 0.195225 0.238475 0.25635 0.387625 0.0611 0.14915 0.09165 0.3115 0.09165 0.48705 0 0.176075 -0.03055 0.338675 -0.09165 0.487825 -0.061125 0.14915 -0.146575 0.27835 -0.25635 0.387625 -0.109275 0.109275 -0.23925 0.194725 -0.38995 0.25635 -0.1507 0.0611 -0.3172 0.09165 -0.499475 0.09165 -0.076125 0 -0.15665 -0.008275 -0.2416 -0.02485 -0.0844 -0.016575 -0.166475 -0.042975 -0.246225 -0.079225 -0.07925 -0.036775 -0.155375 -0.083375 -0.2284 -0.139825 -0.073 -0.05645 -0.135925 -0.1243 -0.18875 -0.203525h-0.0101v0.387625H14.0335V10.299925h0.3278Zm3.822925 1.371825c0.1823 0 0.348775 0.030825 0.499475 0.09245 0.151225 0.0611 0.281475 0.146275 0.390725 0.25555 0.109275 0.109275 0.194475 0.238475 0.255575 0.387625 0.061625 0.14915 0.09245 0.3115 0.09245 0.48705 0 0.176075 -0.030825 0.338675 -0.09245 0.487825 -0.0611 0.14915 -0.1463 0.27835 -0.255575 0.387625 -0.10925 0.109275 -0.2395 0.194725 -0.390725 0.25635 -0.1507 0.0611 -0.317175 0.09165 -0.499475 0.09165 -0.17865 0 -0.3436 -0.03055 -0.494825 -0.09165 -0.1507 -0.061625 -0.280675 -0.147075 -0.38995 -0.25635 -0.109275 -0.109275 -0.1947 -0.238475 -0.256325 -0.387625 -0.061125 -0.14915 -0.091675 -0.31175 -0.091675 -0.487825 0 -0.17555 0.03055 -0.3379 0.091675 -0.48705 0.061625 -0.14915 0.14705 -0.27835 0.256325 -0.387625 0.109275 -0.109275 0.23925 -0.19445 0.38995 -0.25555 0.151225 -0.061625 0.316175 -0.09245 0.494825 -0.09245Zm2.928675 0c0.0927 0 0.17375 0.00985 0.24315 0.029525l-0.064475 0.32315c-0.043 -0.016575 -0.1059 -0.024875 -0.188775 -0.024875 -0.125825 0 -0.23355 0.0241 -0.32315 0.07225 -0.089575 0.04815 -0.16415 0.109525 -0.2237 0.1841 -0.05955 0.074575 -0.103575 0.1551 -0.132075 0.241575 -0.02795 0.085975 -0.041925 0.168575 -0.041925 0.2478v1.3128h-0.327825v-1.600975c0 -0.10255 -0.002575 -0.2069 -0.00775 -0.31305 -0.0052 -0.106175 -0.009325 -0.243675 -0.01245 -0.412475h0.32315v0.432675h0.0101c0.0233 -0.0632 0.05645 -0.123775 0.099425 -0.181775 0.043 -0.058 0.09505 -0.11005 0.15615 -0.15615 0.061625 -0.0466 0.132825 -0.083875 0.213625 -0.11185 0.0813 -0.028475 0.173475 -0.042725 0.276525 -0.042725Zm1.7624 0c0.2983 0 0.51865 0.078725 0.66105 0.23615 0.142425 0.157425 0.213625 0.381925 0.213625 0.673475v1.4767h-0.3278v-1.287925c0 -0.258425 -0.0448 -0.45625 -0.1344 -0.593475 -0.089575 -0.13775 -0.2553 -0.206625 -0.49715 -0.206625 -0.016575 0 -0.062925 0.006725 -0.13905 0.020175 -0.076125 0.01295 -0.15665 0.049475 -0.241575 0.10955 -0.0844 0.05955 -0.15975 0.148875 -0.22605 0.267975 -0.066275 0.119125 -0.099425 0.284825 -0.099425 0.49715v1.193175h-0.3278v-1.8146c0 -0.063175 -0.0026 -0.142675 -0.007775 -0.238475 -0.004675 -0.096325 -0.01035 -0.187475 -0.0171 -0.273425h0.337925c0.006725 0.06265 0.010875 0.1248 0.012425 0.186425 0.00155 0.0611 0.002325 0.12325 0.002325 0.186425h0.0101c0.03625 -0.063175 0.0826 -0.121175 0.13905 -0.174 0.05645 -0.05335 0.11935 -0.098925 0.18875 -0.136725 0.069925 -0.038325 0.1437 -0.0681 0.2214 -0.089325 0.0782 -0.02175 0.15535 -0.032625 0.231475 -0.032625Zm-9.930575 1.228125h-0.169325c-0.082875 0 -0.18645 0.004125 -0.310725 0.012425 -0.1243 0.008275 -0.24365 0.028225 -0.3581 0.0598 -0.113925 0.031075 -0.21155 0.07975 -0.29285 0.14605 -0.0813 0.066275 -0.121975 0.157425 -0.121975 0.273425 0 0.07665 0.0158 0.142425 0.0474 0.1973 0.031575 0.054375 0.0738 0.098925 0.126625 0.133625 0.0528 0.0347 0.1116 0.05955 0.176325 0.074575 0.064725 0.015 0.13025 0.022525 0.196525 0.022525 0.1191 0 0.222675 -0.01995 0.310725 -0.059825 0.088025 -0.039875 0.161825 -0.093725 0.221375 -0.161575 0.05955 -0.067825 0.103325 -0.147325 0.131275 -0.238475 0.0285 -0.09115 0.042725 -0.18825 0.042725 -0.2913v-0.16855Zm2.33165 -0.929825c-0.1362 0 -0.26075 0.024075 -0.37365 0.072225 -0.112375 0.048175 -0.21 0.113675 -0.29285 0.196525 -0.08285 0.082875 -0.1476 0.18075 -0.1942 0.29365 -0.0461 0.112375 -0.069125 0.233025 -0.069125 0.361975 0 0.129475 0.023025 0.25065 0.069125 0.36355 0.0466 0.112375 0.11135 0.209975 0.1942 0.29285 0.08285 0.08285 0.180475 0.148375 0.29285 0.196525 0.1129 0.04815 0.23745 0.07225 0.37365 0.07225 0.135675 0 0.257375 -0.0241 0.365075 -0.07225 0.107725 -0.04815 0.19965 -0.113675 0.275775 -0.196525 0.07665 -0.082875 0.135675 -0.180475 0.1771 -0.29285 0.04145 -0.1129 0.06215 -0.234075 0.06215 -0.36355 0 -0.12895 -0.0207 -0.2496 -0.06215 -0.361975 -0.041425 -0.1129 -0.10045 -0.210775 -0.1771 -0.29365 -0.076125 -0.08285 -0.16805 -0.14835 -0.275775 -0.196525 -0.1077 -0.04815 -0.2294 -0.072225 -0.365075 -0.072225Zm2.90785 0c-0.135675 0 -0.257375 0.024075 -0.3651 0.072225 -0.1077 0.048175 -0.19885 0.113675 -0.273425 0.196525 -0.074575 0.082875 -0.132575 0.18075 -0.174 0.29365 -0.041425 0.112375 -0.06215 0.233025 -0.06215 0.361975 0 0.129475 0.020725 0.25065 0.06215 0.36355 0.041425 0.112375 0.099425 0.209975 0.174 0.29285 0.074575 0.08285 0.165725 0.148375 0.273425 0.196525 0.107725 0.04815 0.229425 0.07225 0.3651 0.07225 0.1362 0 0.25815 -0.0241 0.365875 -0.07225 0.107725 -0.04815 0.199625 -0.113675 0.27575 -0.196525 0.076125 -0.082875 0.134925 -0.180475 0.17635 -0.29285 0.041425 -0.1129 0.06215 -0.234075 0.06215 -0.36355 0 -0.12895 -0.020725 -0.2496 -0.06215 -0.361975 -0.041425 -0.1129 -0.100225 -0.210775 -0.17635 -0.29365 -0.076125 -0.08285 -0.168025 -0.14835 -0.27575 -0.196525 -0.107725 -0.04815 -0.229675 -0.072225 -0.365875 -0.072225Zm-8.440975 0c-0.106175 0 -0.208975 0.0207 -0.3084 0.062125 -0.099425 0.04145 -0.186425 0.0971 -0.261 0.167025 -0.074575 0.0694 -0.134375 0.148875 -0.179425 0.238475 -0.04455 0.089075 -0.066825 0.181775 -0.066825 0.2781h1.5707c0 -0.222175 -0.0663 -0.401875 -0.198875 -0.5391 -0.132575 -0.13775 -0.31795 -0.206625 -0.556175 -0.206625Z" stroke-width="0.25"></path>
</svg>